<svg xmlns="http://www.w3.org/2000/svg" width="42" height="42" viewBox="0 0 42 42">
    <defs>
        <clipPath id="yvhlill22a">
            <path data-name="사각형 12552" style="fill:#fff" d="M0 0h38.5v36.499H0z"/>
        </clipPath>
    </defs>
    <path style="fill:none" d="M0 0h42v42H0z"/>
    <g data-name="그룹 3818">
        <g data-name="그룹 3817" style="clip-path:url(#yvhlill22a)" transform="translate(1.75 2.75)">
            <path data-name="패스 12731" d="M25.038 36.5a.752.752 0 0 1-.748-.82l.429-4.589-3.232-3.484a.75.75 0 0 1 .391-1.243l4.835-1.046 2.55-3.974a.751.751 0 0 1 1.262 0l2.549 3.974 4.835 1.046a.75.75 0 0 1 .391 1.243l-3.231 3.483.428 4.589a.751.751 0 0 1-1.025.767l-4.578-1.821-4.579 1.821a.765.765 0 0 1-.277.053m4.856-3.431a.757.757 0 0 1 .277.053l3.718 1.479-.346-3.7a.749.749 0 0 1 .2-.579l2.564-2.765-3.852-.834a.749.749 0 0 1-.473-.328l-2.086-3.252-2.087 3.252a.749.749 0 0 1-.473.328l-3.852.834 2.565 2.765a.749.749 0 0 1 .2.579l-.349 3.7 3.719-1.478a.757.757 0 0 1 .277-.053" style="fill:#fff"/>
            <path data-name="패스 12732" d="M20.009 30.9H7.894a2.168 2.168 0 0 1-2.179-2.15v-14a2.168 2.168 0 0 1 2.179-2.15h24.285a2.168 2.168 0 0 1 2.179 2.151v7.2a.75.75 0 0 1-1.5 0v-7.2a.666.666 0 0 0-.679-.651H7.894a.666.666 0 0 0-.679.651v14a.666.666 0 0 0 .679.65h12.115a.75.75 0 1 1 0 1.5" style="fill:#fff"/>
            <path data-name="패스 12733" d="M12.937 21.1h-1.515a2.849 2.849 0 1 1 0-5.7h1.515a2.849 2.849 0 0 1 0 5.7m-1.515-4.2a1.349 1.349 0 1 0 0 2.7h1.515a1.349 1.349 0 0 0 0-2.7z" style="fill:#fff"/>
            <path data-name="패스 12734" d="M12.894 25.3h-2.857a.75.75 0 0 1 0-1.5h2.857a.75.75 0 1 1 0 1.5" style="fill:#fff"/>
            <path data-name="패스 12735" d="M18.608 25.3h-2.857a.75.75 0 0 1 0-1.5h2.857a.75.75 0 1 1 0 1.5" style="fill:#fff"/>
            <path data-name="패스 12736" d="M25.75 17.6h-2.856a.75.75 0 0 1 0-1.5h2.856a.75.75 0 0 1 0 1.5" style="fill:#fff"/>
            <path data-name="패스 12737" d="M25.75 20.4h-2.856a.75.75 0 1 1 0-1.5h2.856a.75.75 0 0 1 0 1.5" style="fill:#fff"/>
            <path data-name="패스 12738" d="M3.615 19a.75.75 0 0 1-.7-.489l-2.78-7.482A2.1 2.1 0 0 1 .2 9.391a2.149 2.149 0 0 1 1.238-1.123L24.26.128a2.192 2.192 0 0 1 2.786 1.282l3.3 8.884a.75.75 0 1 1-1.406.521l-3.3-8.883a.687.687 0 0 0-.875-.392L1.942 9.68a.664.664 0 0 0-.383.344.626.626 0 0 0-.019.484l2.778 7.48A.75.75 0 0 1 3.615 19" style="fill:#fff"/>
            <path data-name="패스 12739" d="M4.44 13.03a.75.75 0 0 1-.7-.488l-.185-.5a1.449 1.449 0 0 1 .879-1.867l4.024-1.431a1.471 1.471 0 0 1 1.87.864l.246.66a.75.75 0 0 1-1.406.524l-.247-.661-3.987 1.462.209.425a.75.75 0 0 1-.7 1.012" style="fill:#fff"/>
            <path data-name="패스 12740" d="M17.008 7.985a.75.75 0 0 1-.252-1.456l2.685-.958a.75.75 0 1 1 .5 1.412l-2.685.958a.739.739 0 0 1-.252.044" style="fill:#fff"/>
            <path data-name="패스 12741" d="M17.986 10.616a.75.75 0 0 1-.252-1.456l2.685-.96a.75.75 0 1 1 .5 1.412l-2.685.958a.739.739 0 0 1-.252.044" style="fill:#fff"/>
        </g>
    </g>
</svg>
