<svg xmlns="http://www.w3.org/2000/svg" width="42" height="42" viewBox="0 0 42 42">
    <defs>
        <clipPath id="g6f90tduba">
            <path data-name="사각형 12559" style="fill:#9cb2ff" d="M0 0h36.641v28.538H0z"/>
        </clipPath>
    </defs>
    <path style="fill:none" d="M0 0h42v42H0z"/>
    <g data-name="그룹 3832">
        <g data-name="그룹 3831" style="clip-path:url(#g6f90tduba)" transform="translate(2.475 7)">
            <path data-name="패스 12764" d="M33.627 27.038H3.731A3.414 3.414 0 0 1 1.5 23.83v-.543h12.342v1.568a.75.75 0 0 0 .75.75h8.834a.75.75 0 0 0 .75-.75v-2.423a.75.75 0 0 0-1.5 0V24.1h-7.334v-1.563a.75.75 0 0 0-.75-.75H3.748V3.837A2.178 2.178 0 0 1 5.655 1.5h27.172a2.2 2.2 0 0 1 1.972 2.4v11.734a.75.75 0 1 0 1.5 0V3.954A3.707 3.707 0 0 0 32.9 0H5.588a3.678 3.678 0 0 0-3.34 3.892v17.895H.75a.75.75 0 0 0-.75.75v1.293a4.913 4.913 0 0 0 3.368 4.67.759.759 0 0 0 .237.038h30.022a.75.75 0 0 0 0-1.5" style="fill:#9cb2ff"/>
            <path data-name="패스 12765" d="m35.939 21.58-4.159-4.064a.552.552 0 0 0-.414-.166.583.583 0 0 0-.409.176l-.832.851-2.085-2.069a7.569 7.569 0 1 0-.813.831l2.085 2.07-.793.813a.581.581 0 0 0 .009.822l4.16 4.065a2.327 2.327 0 1 0 3.251-3.329m-18.16-5.546a6.4 6.4 0 1 1 9.046-.105 6.405 6.405 0 0 1-9.046.105" style="fill:#9cb2ff"/>
        </g>
    </g>
</svg>
