<svg xmlns="http://www.w3.org/2000/svg" width="82" height="82" viewBox="0 0 82 82">
    <g data-name="1th_off_icon">
        <path data-name="패스 12419" d="M46.727 30.082a1.167 1.167 0 0 1-.508-.114 15.206 15.206 0 0 1-5.513-4.113 6.606 6.606 0 0 1-.847-1.408l-38.474.138a.818.818 0 1 1-.009-1.6l39.236-.141a.919.919 0 0 1 .986.7 4.188 4.188 0 0 0 .868 1.57 13.481 13.481 0 0 0 4.771 3.486.719.719 0 0 1 .339 1.1 1.057 1.057 0 0 1-.849.382z" transform="translate(.057 2.348)" style="fill:#9cb2ff"/>
        <path data-name="선 45" d="M35.6.344H-.084C-.59.344-1 .043-1-.328S-.59-1-.084-1H35.6c.506 0 .916.3.916.672s-.406.672-.916.672z" transform="translate(6.494 29.392)" style="fill:#9cb2ff"/>
        <path data-name="패스 12420" d="M1 24.485a1 1 0 0 1 .575.182l6.3 4.424a1 1 0 0 1 .133.111 4.593 4.593 0 0 0 2.73.853l36.771.064a1 1 0 0 1 1 1v49.12a1 1 0 0 1-1 1c-.163 0-16.472.039-27.631.039-8.882 0-10.264-.023-10.53-.041a11.707 11.707 0 0 1-3.642-1.163 1 1 0 0 1-.2-.132L.352 75.549A1 1 0 0 1 0 74.788v-49.3a1 1 0 0 1 1-1zm5.663 6.2L2 27.409v46.917l4.709 4.011a9.6 9.6 0 0 0 2.771.9c.208.014 1.835.037 10.4.037 9.562 0 22.906-.028 26.629-.036V32.117l-35.771-.062a6.566 6.566 0 0 1-4.075-1.373z" transform="translate(0 .722)" style="fill:#9cb2ff"/>
        <path data-name="선 46" d="M0 42.25a1 1 0 0 1-1-1V0a1 1 0 0 1 1-1 1 1 0 0 1 1 1v41.25a1 1 0 0 1-1 1z" transform="translate(8.323 35.964)" style="fill:#9cb2ff"/>
        <path data-name="사각형 12480" d="M1.543-1h17.538a2.547 2.547 0 0 1 2.544 2.544v8.371a2.546 2.546 0 0 1-2.543 2.543H1.543A2.546 2.546 0 0 1-1 9.915V1.543A2.546 2.546 0 0 1 1.543-1zm17.539 11.458a.544.544 0 0 0 .543-.543V1.544A.545.545 0 0 0 19.081 1H1.543A.544.544 0 0 0 1 1.543v8.372a.544.544 0 0 0 .543.543z" transform="translate(17.373 40.435)" style="fill:#9cb2ff"/>
        <path data-name="선 47" d="M16.615 1H0a1 1 0 0 1-1-1 1 1 0 0 1 1-1h16.615a1 1 0 0 1 1 1 1 1 0 0 1-1 1z" transform="translate(18.519 57.258)" style="fill:#9cb2ff"/>
        <path data-name="선 48" d="M12.6 1H0a1 1 0 0 1-1-1 1 1 0 0 1 1-1h12.6a1 1 0 0 1 1 1 1 1 0 0 1-1 1z" transform="translate(18.565 62.79)" style="fill:#9cb2ff"/>
        <path data-name="사각형 12479" d="M0-1h21.771a1 1 0 0 1 1 1v20.625a1 1 0 0 1-1 1H0a1 1 0 0 1-1-1V0a1 1 0 0 1 1-1zm20.771 2H1v18.625h19.771z" transform="translate(51.208 17.401)" style="fill:#9cb2ff"/>
        <path data-name="패스 12417" d="M14.391 26.208h-2V1a1 1 0 0 1 1-1h42.4a1 1 0 0 1 1 1v9.167h-2V2h-40.4z" transform="translate(.775)" style="fill:#9cb2ff"/>
        <path data-name="선 41" d="M.065 9.65a1.092 1.092 0 0 1-.925-.48.9.9 0 0 1 .4-1.3L16.61-.874a1.133 1.133 0 0 1 1.452.355.9.9 0 0 1-.4 1.3L.592 9.525a1.156 1.156 0 0 1-.527.125z" transform="translate(38.604 1)" style="fill:#9cb2ff"/>
        <path data-name="패스 12418" d="M78.787 69.027H46.266a.969.969 0 1 1 0-1.937h31.521V9.936h-40.4v14.446a1 1 0 0 1-2 0V8.968a.985.985 0 0 1 1-.968h42.4a.985.985 0 0 1 1 .968v59.09a.985.985 0 0 1-1 .969z" transform="translate(2.213 1.167)" style="fill:#9cb2ff"/>
        <path data-name="선 42" d="M21.771 1H0a1 1 0 0 1-1-1 1 1 0 0 1 1-1h21.771a1 1 0 0 1 1 1 1 1 0 0 1-1 1z" transform="translate(51.208 46.364)" style="fill:#9cb2ff"/>
        <path data-name="선 43" d="M21.771 1H0a1 1 0 0 1-1-1 1 1 0 0 1 1-1h21.771a1 1 0 0 1 1 1 1 1 0 0 1-1 1z" transform="translate(51.208 53.003)" style="fill:#9cb2ff"/>
        <path data-name="선 44" d="M21.771 1H0a1 1 0 0 1-1-1 1 1 0 0 1 1-1h21.771a1 1 0 0 1 1 1 1 1 0 0 1-1 1z" transform="translate(51.208 59.641)" style="fill:#9cb2ff"/>
    </g>
</svg>
