<svg xmlns="http://www.w3.org/2000/svg" width="40" height="28" viewBox="0 0 40 28">
    <defs>
        <clipPath id="6z6naizwxa">
            <path data-name="사각형 12565" style="fill:#9cb2ff" d="M0 0h30.096v26.15H0z"/>
        </clipPath>
    </defs>
    <path style="fill:none" d="M0 0h40v28H0z"/>
    <g data-name="그룹 3844">
        <g data-name="그룹 3843" style="clip-path:url(#6z6naizwxa)" transform="translate(5 .75)">
            <path data-name="패스 12775" d="M18.971 20.484a4.755 4.755 0 0 1-.778 3.639 1.372 1.372 0 0 1-1.047.528H3.384a1.377 1.377 0 0 1-1.049-.528 4.766 4.766 0 0 1-.775-3.638l1.3-9.756A3.194 3.194 0 0 1 4.473 8.22c-.036.6-.054 1.209-.054 1.8a1.4 1.4 0 0 0 2.8 0c0-.7.032-1.331.076-1.936h4.361a8.1 8.1 0 0 1 3.434-3.275C14.526 2.106 13.429 0 11.589 0H8.414c-2.239 0-3.379 3.115-3.8 6.637a4.367 4.367 0 0 0-3.237 3.893l-1.3 9.755a6.178 6.178 0 0 0 1.133 4.826 2.848 2.848 0 0 0 2.177 1.04h13.759a2.851 2.851 0 0 0 2.176-1.039 6.183 6.183 0 0 0 1.136-4.827l-.011-.082a8.034 8.034 0 0 1-1.49.171zM8.606 2.8H11.4a8.731 8.731 0 0 1 1.151 3.785H7.454A8.735 8.735 0 0 1 8.606 2.8" style="fill:#9cb2ff"/>
            <path data-name="패스 12776" d="m29.547 20.093-3.264-3.188a.446.446 0 0 0-.142-.1.386.386 0 0 0-.059-.012.412.412 0 0 0-.123-.022.455.455 0 0 0-.321.137l-.443.454-1.459-1.448A6.218 6.218 0 0 0 14.349 7.8a6.184 6.184 0 0 0-1.516 2.58 6.266 6.266 0 0 0-.255 1.848 6.213 6.213 0 0 0 6.111 6.15c.039 0 .078.006.117.006a5.991 5.991 0 0 0 1.373-.18 6.252 6.252 0 0 0 2.5-1.2l1.461 1.45-.413.423a.451.451 0 0 0-.13.324.457.457 0 0 0 .137.321L27 22.7a1.825 1.825 0 0 0 2.551-2.611m-7.369-4.639a4.667 4.667 0 0 1-2.2 1.255 4.723 4.723 0 0 1-1.173.163c-.109 0-.214-.023-.322-.031a4.713 4.713 0 0 1-3.053-7.983c.034-.035.075-.059.11-.092a4.78 4.78 0 0 1 .6-.505 4.639 4.639 0 0 1 1.564-.681 4.791 4.791 0 0 1 1.1-.141 4.717 4.717 0 0 1 3.375 8.015" style="fill:#9cb2ff"/>
        </g>
    </g>
</svg>
