<svg xmlns="http://www.w3.org/2000/svg" width="42" height="42" viewBox="0 0 42 42">
    <defs>
        <clipPath id="bxq5qiiq0a">
            <path data-name="사각형 12557" style="fill:#9cb2ff" d="M0 0h31.904v33.425H0z"/>
        </clipPath>
    </defs>
    <path style="fill:none" d="M0 0h42v42H0z"/>
    <g data-name="그룹 3828">
        <g data-name="그룹 3827" style="clip-path:url(#bxq5qiiq0a)" transform="translate(5.048 4.287)">
            <path data-name="패스 12759" d="M15.952 0A15.952 15.952 0 0 0 1.764 23.244L.013 32.536a.75.75 0 0 0 .737.889.736.736 0 0 0 .216-.033l8.926-2.684A15.952 15.952 0 1 0 15.952 0m0 30.4a14.347 14.347 0 0 1-5.72-1.181.739.739 0 0 0-.512-.029l-8 2.407 1.571-8.336a.754.754 0 0 0-.076-.493A14.452 14.452 0 1 1 15.952 30.4" style="fill:#9cb2ff"/>
            <path data-name="패스 12760" d="M15.952 12.542a1.747 1.747 0 0 0-1.752 1.747v9.544a1.747 1.747 0 0 0 3.494 0v-9.544a1.747 1.747 0 0 0-1.747-1.747" style="fill:#9cb2ff"/>
            <path data-name="패스 12761" d="M15.952 6.112a1.894 1.894 0 1 0 1.894 1.894 1.893 1.893 0 0 0-1.894-1.894" style="fill:#9cb2ff"/>
        </g>
    </g>
</svg>
