<svg xmlns="http://www.w3.org/2000/svg" width="82" height="72" viewBox="0 0 82 72">
    <g data-name="1th_off_icon">
        <path data-name="패스 12421" d="M53.164 72.972a1.149 1.149 0 0 1-1.149-1.17 41.085 41.085 0 0 1 3.258-15.715A34.862 34.862 0 0 1 62 45.934a32.817 32.817 0 0 1 8.675-6.578l-8.382-20.482C57.1 21.086 55.021 23.692 55 23.72a1.149 1.149 0 1 1-1.82-1.4c.108-.14 2.711-3.468 9.332-6.01a1.149 1.149 0 0 1 1.475.637L73.213 39.5a1.149 1.149 0 0 1-.633 1.5 29.2 29.2 0 0 0-8.992 6.6 32.952 32.952 0 0 0-8.15 15.158 46.046 46.046 0 0 1 4.817-7.883 37.029 37.029 0 0 1 9.8-9.012 30.633 30.633 0 0 1 10.217-4.143L71.4 21.379l-2.532.838a1.149 1.149 0 1 1-.722-2.181l3.526-1.167a1.149 1.149 0 0 1 1.414.631l9.887 22.672a1.149 1.149 0 0 1-.97 1.6 26.569 26.569 0 0 0-10.848 4.1c-5.4 3.4-12.723 10.371-16.9 24.275a1.149 1.149 0 0 1-1.091.825z" transform="translate(-10.937 -.971)" style="fill:#9cb2ff"/>
        <path data-name="패스 12422" d="M64.474 63.478a1.149 1.149 0 0 1-.955-1.787 26.491 26.491 0 0 1 9.308-8.543 32.141 32.141 0 0 1 10.161-3.463 40.237 40.237 0 0 1 9.55-.461l-9.219-21.949-1.872.273a1.149 1.149 0 1 1-.332-2.273l2.752-.4a1.149 1.149 0 0 1 1.225.692L95.41 50.13a1.149 1.149 0 0 1-1.246 1.578 36.613 36.613 0 0 0-10.861.253 27.1 27.1 0 0 0-14.18 6.655A23.338 23.338 0 0 1 73.9 57.5a31.961 31.961 0 0 1 9.777.377 44.2 44.2 0 0 1 7.847 2.226l-1.577-4.3a1.149 1.149 0 0 1 2.157-.79l2.496 6.804a1.149 1.149 0 0 1-1.6 1.422 40.774 40.774 0 0 0-9.8-3.111c-7.31-1.328-13.384-.276-18.054 3.129a1.146 1.146 0 0 1-.672.221z" transform="translate(-13.5 -1.665)" style="fill:#9cb2ff"/>
        <path data-name="패스 12423" d="M53.238 75.87a1.148 1.148 0 0 1-.894-1.87 23.5 23.5 0 0 1 8.933-6.244 24.464 24.464 0 0 1 10.664-1.736 31.942 31.942 0 0 1 11.829 3.2l-.831-2.838a1.149 1.149 0 1 1 2.2-.646l1.582 5.4a1.149 1.149 0 0 1-1.658 1.328c-8.18-4.521-15.861-5.4-22.827-2.617a21.618 21.618 0 0 0-8.109 5.6 1.148 1.148 0 0 1-.889.423z" transform="translate(-10.954 -4.884)" style="fill:#9cb2ff"/>
        <path data-name="패스 12424" d="M10.809 59.165H1.148A1.149 1.149 0 0 1 0 58.017V1.148A1.149 1.149 0 0 1 1.148 0h21a1.149 1.149 0 0 1 1.149 1.149v9.574H21V2.3H2.3v54.568h8.512z" transform="translate(0 .001)" style="fill:#9cb2ff"/>
        <path data-name="선 49" d="M.149 9.722a1.149 1.149 0 0 1-.728-2.037L9.706-.74a1.149 1.149 0 1 1 1.456 1.777L.876 9.462a1.144 1.144 0 0 1-.727.26z" transform="translate(11.71 1.001)" style="fill:#9cb2ff"/>
        <path data-name="사각형 12481" d="M.149-1h27.183A1.135 1.135 0 0 1 28.48.12v57.258a1.135 1.135 0 0 1-1.149 1.12H.149A1.135 1.135 0 0 1-1 57.378V.12A1.135 1.135 0 0 1 .149-1zm26.034 2.24H1.3v55.018h24.883z" transform="translate(11.71 9.426)" style="fill:#9cb2ff"/>
        <path data-name="사각형 12482" d="M.149-1h13.959A1.149 1.149 0 0 1 15.256.149V19.1a1.149 1.149 0 0 1-1.149 1.149H.149A1.149 1.149 0 0 1-1 19.1V.149A1.149 1.149 0 0 1 .149-1zm12.81 2.3H1.3v16.656h11.659z" transform="translate(17.57 17.962)" style="fill:#9cb2ff"/>
        <path data-name="선 50" d="M15.256 1.3H-1V-1h16.256z" transform="translate(17.57 45.444)" style="fill:#9cb2ff"/>
        <path data-name="선 51" d="M15.256 1.3H-1V-1h16.256z" transform="translate(17.57 51.793)" style="fill:#9cb2ff"/>
        <path data-name="선 52" d="M15.256 1.3H-1V-1h16.256z" transform="translate(17.57 58.466)" style="fill:#9cb2ff"/>
    </g>
</svg>
