<svg xmlns="http://www.w3.org/2000/svg" width="42" height="42" viewBox="0 0 42 42">
    <defs>
        <clipPath id="d4upcy64ya">
            <path data-name="사각형 12553" transform="translate(0 .001)" style="fill:#fff" d="M0 0h31.316v34.354H0z"/>
        </clipPath>
    </defs>
    <path style="fill:none" d="M0 0h42v42H0z"/>
    <g data-name="그룹 3820">
        <g data-name="그룹 3819" style="clip-path:url(#d4upcy64ya)" transform="translate(5.342 3.822)">
            <path data-name="패스 12742" d="M26.756 0H4.56A4.559 4.559 0 0 0 0 4.548v23.946a2.743 2.743 0 0 0 2.743 2.736h12.908c.037.108.075.216.12.323l.955 2.284a.817.817 0 0 0 1.039.429.793.793 0 0 0 .43-1.039l-.955-2.285a6.351 6.351 0 0 1-.494-2.464v-5.019a1.23 1.23 0 0 1 2.4-.387L20.12 26a1.883 1.883 0 0 0 3.667-.6V12.676h.2c.865.855 4.26 4.469 4.069 8.265v6.879a12.666 12.666 0 0 1-1.218 5.4.8.8 0 0 0 .718 1.135.8.8 0 0 0 .719-.453 14.261 14.261 0 0 0 1.375-6.082v-6.854c.165-3.41-1.976-6.533-3.5-8.311h2.428a2.742 2.742 0 0 0 2.738-2.735V4.548A4.559 4.559 0 0 0 26.756 0m1.817 11.068-4.786.017V4.548a2.769 2.769 0 0 1 1.518-2.959h1.451a2.967 2.967 0 0 1 2.968 2.959V9.92a1.151 1.151 0 0 1-1.151 1.148m-6.378-6.52v7.174a.567.567 0 0 0-.025.158.253.253 0 0 0 .025.13V25.4a.289.289 0 0 1-.564.092l-.979-2.926a2.822 2.822 0 0 0-5.5.889v5.019a7.874 7.874 0 0 0 .089 1.164H2.743a1.151 1.151 0 0 1-1.152-1.148V4.548A2.968 2.968 0 0 1 4.56 1.589H22.9a5.446 5.446 0 0 0-.7 2.959" style="fill:#fff"/>
            <path data-name="패스 12743" d="M20.07 6.754h-7.361a.8.8 0 0 0 0 1.591h7.361a.8.8 0 1 0 0-1.591" style="fill:#fff"/>
            <path data-name="패스 12744" d="M20.07 14.935H12.9a.8.8 0 0 0 0 1.591h7.17a.8.8 0 1 0 0-1.591" style="fill:#fff"/>
            <path data-name="패스 12745" d="M7.274 4.155a3.194 3.194 0 1 0 3.2 3.195 3.2 3.2 0 0 0-3.2-3.195m0 4.888a1.694 1.694 0 1 1 1.7-1.693 1.7 1.7 0 0 1-1.7 1.693" style="fill:#fff"/>
            <path data-name="패스 12746" d="M7.274 12.155a3.194 3.194 0 1 0 3.2 3.2 3.2 3.2 0 0 0-3.2-3.2m0 4.888a1.694 1.694 0 1 1 1.7-1.693 1.7 1.7 0 0 1-1.7 1.693" style="fill:#fff"/>
            <path data-name="패스 12747" d="M7.274 20.155a3.194 3.194 0 1 0 3.2 3.195 3.2 3.2 0 0 0-3.2-3.195m0 4.888a1.694 1.694 0 1 1 1.7-1.693 1.7 1.7 0 0 1-1.7 1.693" style="fill:#fff"/>
        </g>
    </g>
</svg>
