<svg xmlns="http://www.w3.org/2000/svg" width="42" height="42" viewBox="0 0 42 42">
    <defs>
        <clipPath id="roh4ckwhga">
            <path data-name="사각형 12558" style="fill:#fff" d="M0 0h39.05v28.538H0z"/>
        </clipPath>
    </defs>
    <path style="fill:none" d="M0 0h42v42H0z"/>
    <g data-name="그룹 3830">
        <g data-name="그룹 3829" style="clip-path:url(#roh4ckwhga)" transform="translate(1.475 6.73)">
            <path data-name="패스 12762" d="M37.627 21.787H23.785a.75.75 0 0 0-.75.75V24.1h-7.693v-1.563a.75.75 0 0 0-.75-.75H3.748V3.837A2.178 2.178 0 0 1 5.655 1.5h27.172A2.187 2.187 0 0 1 34.8 3.837a.75.75 0 0 0 .689.806.772.772 0 0 0 .807-.689A3.707 3.707 0 0 0 32.9 0H5.588a3.678 3.678 0 0 0-3.34 3.892v17.895H.75a.75.75 0 0 0-.75.75v1.293a4.913 4.913 0 0 0 3.368 4.67.759.759 0 0 0 .237.038h31.168a.757.757 0 0 0 .236-.038 4.913 4.913 0 0 0 3.368-4.67v-1.293a.75.75 0 0 0-.75-.75m-.75 2.043a3.414 3.414 0 0 1-2.231 3.208H3.731A3.414 3.414 0 0 1 1.5 23.83v-.543h12.342v1.568a.75.75 0 0 0 .75.75h8.834a.728.728 0 0 0 .18-.036.711.711 0 0 0 .179.036.75.75 0 0 0 .75-.75v-1.568h12.342z" style="fill:#fff"/>
            <path data-name="패스 12763" d="M36.325 5.982h-15.45a2.763 2.763 0 0 0-2.724 2.8v7.292a2.765 2.765 0 0 0 2.724 2.8l-.975 3.389 5.84-3.393h10.585a2.763 2.763 0 0 0 2.724-2.8V8.779a2.763 2.763 0 0 0-2.724-2.8M23.35 13.9a1.5 1.5 0 1 1 1.5-1.5 1.5 1.5 0 0 1-1.5 1.5m5.25 0a1.5 1.5 0 1 1 1.5-1.5 1.5 1.5 0 0 1-1.5 1.5m5.25 0a1.5 1.5 0 1 1 1.5-1.5 1.5 1.5 0 0 1-1.5 1.5" style="fill:#fff"/>
        </g>
    </g>
</svg>
