<svg xmlns="http://www.w3.org/2000/svg" width="84" height="74.998" viewBox="0 0 84 74.998">
    <path data-name="패스 12731" d="M24.761 55.711a4.758 4.758 0 0 1-2.643-.753L1.3 40.857C.094 40.039 0 38.11 0 37.539s.094-2.5 1.3-3.318L29.439 15.16a1 1 0 0 1 1.122 1.656L2.423 35.876A2.532 2.532 0 0 0 2 37.539a2.531 2.531 0 0 0 .423 1.661L23.24 53.3a3.017 3.017 0 0 0 3.027.01l4.55-3.348A1 1 0 0 1 32 51.575l-4.567 3.36-.031.022a4.755 4.755 0 0 1-2.641.754z" transform="translate(0 -.878)" style="fill:#9cb2ff"/>
    <path data-name="패스 12732" d="M73.275 29.19a1 1 0 0 1-.562-1.828l5.239-3.549a2.534 2.534 0 0 0 .423-1.664 2.53 2.53 0 0 0-.423-1.661L57.135 6.387a3.015 3.015 0 0 0-3.042 0l-3.065 2.077a1 1 0 0 1-1.122-1.656l3.065-2.076a5.014 5.014 0 0 1 5.286 0l20.816 14.1c1.207.817 1.3 2.745 1.3 3.317s-.093 2.5-1.3 3.32l-5.239 3.549a1 1 0 0 1-.559.172z" transform="translate(-13.55 -.975)" style="fill:#9cb2ff"/>
    <path data-name="선 49" d="M2.081 2.41a1 1 0 0 1-.56-.172L-.561.828A1 1 0 0 1-.828-.561 1 1 0 0 1 .561-.828L2.642.582a1 1 0 0 1-.561 1.828z" transform="translate(15.194 42.492)" style="fill:#9cb2ff"/>
    <path data-name="선 50" d="M2.081 2.41a1 1 0 0 1-.56-.172L-.561.828A1 1 0 0 1-.828-.561 1 1 0 0 1 .561-.828L2.642.582a1 1 0 0 1-.561 1.828z" transform="translate(49.577 14.964)" style="fill:#9cb2ff"/>
    <path data-name="패스 12733" d="M2.143 32.377a1 1 0 0 1-.562-1.828c13.134-8.9 18.6-17.832 16.7-27.317a2.621 2.621 0 0 1 1.228-2.7A3.117 3.117 0 0 1 23 .531l19.19 13.05a1 1 0 0 1-1.125 1.654L21.873 2.186a1.114 1.114 0 0 0-1.255.016c-.2.136-.425.384-.374.637a20.161 20.161 0 0 1 .235 6.651 21.541 21.541 0 0 1-2.367 7.192 33.323 33.323 0 0 1-5.691 7.584A63.077 63.077 0 0 1 2.7 32.2a1 1 0 0 1-.557.177z" transform="translate(-.279 -.001)" style="fill:#9cb2ff"/>
    <path data-name="패스 12735" d="M79.855 77.294H53.547A1 1 0 0 1 52.84 77l-7.673-7.673a1 1 0 0 1-.293-.707V46.7a3.2 3.2 0 0 1 3.192-3.193h1.1a1 1 0 0 1 0 2h-1.1a1.194 1.194 0 0 0-1.192 1.193v21.507l7.087 7.087h25.894a1.194 1.194 0 0 0 1.193-1.194V46.7a1.194 1.194 0 0 0-1.193-1.193h-7.673a1 1 0 0 1 0-2h7.673a3.2 3.2 0 0 1 3.193 3.193v27.4a3.2 3.2 0 0 1-3.193 3.194z" transform="translate(-11.105 -2.295)" style="fill:#9cb2ff"/>
    <path data-name="패스 12736" d="M55.354 82.571a1 1 0 0 1-1-1v-5.577h-5.577a1 1 0 0 1 0-2h6.577a1 1 0 0 1 1 1v6.577a1 1 0 0 1-1 1z" transform="translate(-10.74 -9.765)" style="fill:#9cb2ff"/>
    <path data-name="패스 12737" d="M76.2 56.331a3.187 3.187 0 0 1-2.227-.9l-4.113-3.975 1.39-1.438 4.11 3.974a1.211 1.211 0 0 0 1.69-.015 1.205 1.205 0 0 0-.005-1.709l-4.029-3.985 1.406-1.422 4.03 3.985a3.2 3.2 0 0 1-2.226 5.483z" transform="translate(-16.548 -5.484)" style="fill:#9cb2ff"/>
    <path data-name="패스 12738" d="M58.875 50.133a5.814 5.814 0 0 1-4.15-1.528 5.649 5.649 0 0 1-1.638-4.046 10.948 10.948 0 0 1 1.164-4.854l1.807.857c-1.315 2.772-1.294 5.3.055 6.6 2.185 2.1 7.262.651 11.086-3.174 2.525-2.524 4.078-5.648 4.055-8.153a3.685 3.685 0 0 0-1.028-2.735c-1.321-1.273-3.842-1.283-6.578-.027l-.835-1.818c3.554-1.632 6.844-1.481 8.8.4a5.678 5.678 0 0 1 1.64 4.156c.028 3.068-1.706 6.652-4.641 9.586a16.485 16.485 0 0 1-7.327 4.406 9.779 9.779 0 0 1-2.41.33z" transform="translate(-12.351 -2.292)" style="fill:#9cb2ff"/>
    <path data-name="패스 12739" d="M66.67 37.153a1 1 0 0 1-.97-1.253 2.6 2.6 0 0 0-.15-2.263l-4.412-4.412a1 1 0 0 1 1.414-1.414l4.412 4.412c.9.9 1.14 2.388.67 4.183a1 1 0 0 1-.964.747z" transform="translate(-14.185 -2.435)" style="fill:#9cb2ff"/>
    <path data-name="패스 12740" d="M57.836 44.847a3.468 3.468 0 0 1-2.525-.966l-.011-.011-4.337-4.476A1 1 0 1 1 52.4 38l4.33 4.47a2.057 2.057 0 0 0 1.911.274 6.255 6.255 0 0 0 2.869-1.675 1 1 0 0 1 1.414 1.414 8.187 8.187 0 0 1-3.824 2.21 5.534 5.534 0 0 1-1.264.154z" transform="translate(-11.57 -4.202)" style="fill:#9cb2ff"/>
    <path data-name="패스 12741" d="M54.52 19.726a3.833 3.833 0 0 1 2.787 1.045c1.106 1.106 1.345 2.872.671 4.971a14.49 14.49 0 0 1-3.6 5.573c-2.45 2.451-5.423 3.974-7.756 3.974a3.833 3.833 0 0 1-2.787-1.045c-1.106-1.106-1.345-2.871-.671-4.97a14.49 14.49 0 0 1 3.6-5.573c2.451-2.452 5.423-3.975 7.756-3.975zm-7.9 13.562c1.8 0 4.285-1.33 6.342-3.388a12.476 12.476 0 0 0 3.11-4.769c.427-1.33.361-2.4-.181-2.945a1.873 1.873 0 0 0-1.373-.459c-1.795 0-4.284 1.33-6.342 3.388a12.475 12.475 0 0 0-3.11 4.77c-.427 1.33-.361 2.4.181 2.945a1.873 1.873 0 0 0 1.375.458z" transform="translate(-9.508 -.993)" style="fill:#9cb2ff"/>
    <path data-name="패스 12742" d="M90.94 67.476a1 1 0 0 1-.248-1.969l10.409-2.67a1.194 1.194 0 0 0 .859-1.452l-6.81-26.544a1.192 1.192 0 0 0-1.441-.861l-11.268 3.175a1 1 0 0 1-.541-1.925l11.279-3.179.022-.006a3.192 3.192 0 0 1 3.886 2.3l6.81 26.544a3.2 3.2 0 0 1-2.3 3.886l-10.408 2.669a1 1 0 0 1-.249.032z" transform="translate(-19.997 .537)" style="fill:#9cb2ff"/>
</svg>
