<svg xmlns="http://www.w3.org/2000/svg" width="21.601" height="23.5" viewBox="0 0 21.601 23.5">
    <path data-name="타원 2" d="M4.982-1A5.982 5.982 0 1 1-1 4.982 5.989 5.989 0 0 1 4.982-1zm0 10.255A4.273 4.273 0 1 0 .709 4.982a4.278 4.278 0 0 0 4.273 4.273z" transform="translate(6.365 1)" style="fill:#2a2a2a"/>
    <path data-name="패스 19" d="M1419.876 103.956s-6.418 1.409-6.418 11.272" transform="translate(-1411.958 -93.463)" style="fill:none;stroke:#2a2a2a;stroke-linecap:round;stroke-width:3px"/>
    <path data-name="패스 20" d="M3.845 8.973V6.409H1.282a1.282 1.282 0 1 1 0-2.563h2.563V1.282a1.282 1.282 0 1 1 2.563 0v2.563h2.565a1.282 1.282 0 0 1 0 2.563H6.409v2.565a1.282 1.282 0 0 1-2.563 0z" transform="translate(11.347 13.245)" style="fill:#2a2a2a"/>
</svg>
