<svg xmlns="http://www.w3.org/2000/svg" width="40" height="28" viewBox="0 0 40 28">
    <defs>
        <clipPath id="ulw3xpirra">
            <path data-name="사각형 12564" style="fill:#9cb2ff" d="M0 0h30.139v24.5H0z"/>
        </clipPath>
    </defs>
    <path style="fill:none" d="M0 0h40v28H0z"/>
    <g data-name="그룹 3842">
        <g data-name="그룹 3841" style="clip-path:url(#ulw3xpirra)" transform="translate(5 2.75)">
            <path data-name="패스 12773" d="M18.019 19.444v3.65H1.412V7.023h5.653V1.406h10.954V3.07a8.165 8.165 0 0 1 .83-.041c.2 0 .388.014.581.028V0H6.068L0 6.028V24.5h19.43v-5.042a7.508 7.508 0 0 1-.582.028 8.159 8.159 0 0 1-.829-.042M5.654 2.4v3.218H2.412z" style="fill:#9cb2ff"/>
            <path data-name="패스 12774" d="m29.589 19.2-3.264-3.19a.446.446 0 0 0-.142-.1.385.385 0 0 0-.059-.012.412.412 0 0 0-.124-.018.455.455 0 0 0-.321.137l-.443.454-1.459-1.448A6.248 6.248 0 0 0 23.2 6.8a6.184 6.184 0 0 0-3.77-1.744 6.21 6.21 0 0 0-.581-.028 6.347 6.347 0 0 0-.83.061 6.222 6.222 0 0 0 0 12.336 6.331 6.331 0 0 0 .829.061c.2 0 .388-.032.582-.051a6.206 6.206 0 0 0 3.289-1.335l1.461 1.45-.413.423a.451.451 0 0 0-.13.324.457.457 0 0 0 .137.321l3.264 3.188a1.825 1.825 0 0 0 2.551-2.606m-7.365-4.643a4.657 4.657 0 0 1-2.794 1.361 4.682 4.682 0 0 1-.582.057 4.762 4.762 0 0 1-.829-.079 4.706 4.706 0 0 1 0-9.272 4.864 4.864 0 0 1 .83-.082 4.883 4.883 0 0 1 .581.056 4.67 4.67 0 0 1 2.716 1.286 4.725 4.725 0 0 1 .078 6.673" style="fill:#9cb2ff"/>
        </g>
    </g>
</svg>
