<svg data-name="1th_off_icon" xmlns="http://www.w3.org/2000/svg" width="82" height="82" viewBox="0 0 82 82">
    <path data-name="패스 12406" d="M59.935 42.144a.983.983 0 0 1-.964-1V9.029a9.087 9.087 0 0 0-.921-3.614C56.9 3.149 54.84 2 51.939 2H19.957c-4.534 0-7.876 1.223-9.664 3.538a6.479 6.479 0 0 0-1.365 3.5v32.11a.965.965 0 1 1-1.928 0V9.029A8.4 8.4 0 0 1 8.7 4.4a9.815 9.815 0 0 1 3.942-3.066A17.991 17.991 0 0 1 19.957 0h31.982c4.616 0 6.818 2.477 7.853 4.556A11.066 11.066 0 0 1 60.9 9.029v32.115a.983.983 0 0 1-.965 1z" transform="translate(7.051)" style="fill:#9cb2ff"/>
    <path data-name="패스 12407" d="M44.074 70.217H7.022A7.03 7.03 0 0 1 0 63.195V23.051c0-3.1 2.166-4.927 3.906-6.393l.458-.388c1.752-1.5 9.729-7.788 10.068-8.055l1.238 1.571c-.083.065-8.284 6.528-10 8l-.471.4C3.624 19.51 2 20.878 2 23.051v40.144a5.027 5.027 0 0 0 5.022 5.022h37.052z" transform="translate(0 11.783)" style="fill:#9cb2ff"/>
    <path data-name="선 26" d="M18.363 19.363a1 1 0 0 1-.707-.293L-.707.707a1 1 0 0 1 0-1.414 1 1 0 0 1 1.414 0L19.07 17.656a1 1 0 0 1-.707 1.707z" transform="translate(57.111 54.768)" style="fill:#9cb2ff"/>
    <path data-name="패스 12408" d="M55.123 70.217H21v-2h34.123a5.027 5.027 0 0 0 5.022-5.022V23.051c0-2.172-1.624-3.54-3.195-4.864-.159-.134-.317-.267-.471-.4-1.721-1.475-9.922-7.938-10-8l1.238-1.571c.339.267 8.316 6.554 10.068 8.055.149.128.3.257.458.388 1.74 1.466 3.906 3.291 3.906 6.393v40.143a7.03 7.03 0 0 1-7.026 7.022z" transform="translate(19.856 11.783)" style="fill:#9cb2ff"/>
    <path data-name="패스 12409" d="M41.979 42.087h-8c-3.5 0-6.5-.71-10.624-4.246l-.029-.025-20.033-20.1a1.02 1.02 0 0 1-.017-1.416.953.953 0 0 1 1.375-.018l19.976 20.047c3.676 3.142 6.214 3.758 9.35 3.758h8c3.136 0 5.674-.616 9.35-3.758l19.979-20.045a.953.953 0 0 1 1.375.018 1.02 1.02 0 0 1-.017 1.414l-20.031 20.1-.029.025c-4.127 3.535-7.125 4.246-10.625 4.246z" transform="translate(3.022 18.408)" style="fill:#9cb2ff"/>
    <path data-name="선 25" d="M0 18a1 1 0 0 1-.727-.313 1 1 0 0 1 .04-1.414l18-17a1 1 0 0 1 1.414.04 1 1 0 0 1-.04 1.414l-18 17A1 1 0 0 1 0 18z" transform="translate(9.32 57.68)" style="fill:#9cb2ff"/>
    <path data-name="선 27" d="M27.544 1H0a1 1 0 0 1-1-1 1 1 0 0 1 1-1h27.544a1 1 0 0 1 1 1 1 1 0 0 1-1 1z" transform="translate(27.089 15.629)" style="fill:#9cb2ff"/>
    <path data-name="선 28" d="M27.544 1H0a1 1 0 0 1-1-1 1 1 0 0 1 1-1h27.544a1 1 0 0 1 1 1 1 1 0 0 1-1 1z" transform="translate(27.089 24.597)" style="fill:#9cb2ff"/>
    <path data-name="선 29" d="M14.428 1H0a1 1 0 0 1-1-1 1 1 0 0 1 1-1h14.428a1 1 0 0 1 1 1 1 1 0 0 1-1 1z" transform="translate(27.118 32.851)" style="fill:#9cb2ff"/>
</svg>
