<svg xmlns="http://www.w3.org/2000/svg" width="82" height="70" viewBox="0 0 82 70">
    <g transform="translate(-.096 1.871)">
        <g data-name="패스 12403" style="fill:none;stroke-linecap:round;stroke-miterlimit:10">
            <path d="M100.588 97.119v21.973c0 2.16-2.081 3.911-4.648 3.911H31.648C29.081 123 27 121.252 27 119.092V82.911C27 80.751 29.081 79 31.648 79H95.94c2.567 0 4.648 1.751 4.648 3.911v14.208z" style="stroke:none" transform="translate(-18.491 -54.874)"/>
            <path d="M31.648 82c-1.022 0-1.648.59-1.648.911v36.181c0 .322.626.912 1.648.912H95.94c1.022 0 1.648-.59 1.648-.912v-36.18c0-.322-.626-.912-1.648-.912H31.648m0-3H95.94c2.567 0 4.648 1.751 4.648 3.911v36.181c0 2.16-2.081 3.912-4.648 3.912H31.648c-2.567 0-4.648-1.752-4.648-3.912v-36.18C27 80.75 29.081 79 31.648 79z" style="fill:#9cb2ff;stroke:none" transform="translate(-18.491 -54.874)"/>
        </g>
        <path data-name="패스 12404" d="M10.041 41.624c-.69 0-2.35-.325-2.656-.876l-3.266-7.483c-1.5-2.7-.163-5.906 2.985-7.138L63.641 3.989a7.346 7.346 0 0 1 4.767-.177 6.229 6.229 0 0 1 3.732 2.866l10.068 18.128a1.4 1.4 0 0 1-.9 1.988 2 2 0 0 1-2.412-.74L68.831 7.927a2.791 2.791 0 0 0-1.667-1.3A3.022 3.022 0 0 0 65.2 6.7L8.665 28.836a2.208 2.208 0 0 0-1.237 3.18L10.7 39.5a1.4 1.4 0 0 1-.9 1.988c-.248.092.495.136.241.136z" transform="translate(-3.406 -5.369)" style="fill:#9cb2ff"/>
        <rect data-name="사각형 12476" width="11.111" height="7.778" rx="3.889" transform="translate(62.557 34.153)" style="stroke:#9cb2ff;stroke-width:3px;fill:none;stroke-linecap:round;stroke-miterlimit:10"/>
        <path data-name="선 21" transform="translate(23.755 60.497)" style="stroke:#9cb2ff;stroke-width:3px;fill:none;stroke-linecap:round;stroke-miterlimit:10" d="M0 0h28.889"/>
        <path data-name="선 22" transform="translate(22.288 52.886)" style="stroke:#9cb2ff;stroke-width:3px;fill:none;stroke-linecap:round;stroke-miterlimit:10" d="M0 0h16.667"/>
        <path data-name="패스 12405" d="M143.366 40.63 136.043 44a1.47 1.47 0 0 1-1.95-.721l-2.055-4.468a1.47 1.47 0 0 1 .721-1.95l7.323-3.368a1.47 1.47 0 0 1 1.95.721l2.055 4.468a1.47 1.47 0 0 1-.721 1.948z" transform="translate(-80.139 -22.971)" style="stroke:#9cb2ff;stroke-width:3px;fill:none;stroke-linecap:round;stroke-miterlimit:10"/>
    </g>
</svg>
