<svg xmlns="http://www.w3.org/2000/svg" width="42" height="42" viewBox="0 0 42 42">
    <defs>
        <clipPath id="yazvb8aaaa">
            <path data-name="사각형 12554" style="fill:#9cb2ff" d="M0 0h28.58v35.796H0z"/>
        </clipPath>
    </defs>
    <path style="fill:none" d="M0 0h42v42H0z"/>
    <g data-name="그룹 3822">
        <g data-name="그룹 3821" style="clip-path:url(#yazvb8aaaa)" transform="translate(6.71 3.102)">
            <path data-name="패스 12748" d="m28.478 27.914-1.856-13.676c-.4-2.954-2.543-5.266-4.878-5.266H21C20.48 4.563 19.122 0 16.174 0h-4.52C8.707 0 7.348 4.563 6.832 8.972c-2.332.01-4.473 2.322-4.874 5.265L.1 27.914a8.307 8.307 0 0 0 1.514 6.5A3.767 3.767 0 0 0 4.5 35.8h19.58a3.767 3.767 0 0 0 2.882-1.381 8.312 8.312 0 0 0 1.516-6.5M11.654 2.8l4.446-.01c.5.211 1.577 2.283 2.083 6.182H9.639C10.142 5.073 11.2 3 11.654 2.8m14.178 30.629a2.285 2.285 0 0 1-1.752.867H4.5a2.287 2.287 0 0 1-1.754-.868 6.919 6.919 0 0 1-1.157-5.312L3.444 14.44c.288-2.111 1.724-3.83 3.239-3.947a39.485 39.485 0 0 0-.119 2.994 1.4 1.4 0 0 0 2.8 0c0-1.091.047-2.09.122-3.015h8.854c.075.925.122 1.924.122 3.015a1.4 1.4 0 0 0 2.8 0c0-.914-.037-1.943-.12-3.015h.6c1.573 0 3.1 1.779 3.392 3.967l1.855 13.677a6.919 6.919 0 0 1-1.159 5.313" style="fill:#9cb2ff"/>
        </g>
    </g>
</svg>
