<svg xmlns="http://www.w3.org/2000/svg" width="42" height="42" viewBox="0 0 42 42">
    <defs>
        <clipPath id="flyk38tkca">
            <path data-name="사각형 12555" style="fill:#fff" d="M0 0h39.96v35.05H0z"/>
        </clipPath>
    </defs>
    <path style="fill:none" d="M0 0h42v42H0z"/>
    <g data-name="그룹 3824">
        <g data-name="그룹 3823" style="clip-path:url(#flyk38tkca)" transform="translate(1.02 3.475)">
            <path data-name="패스 12749" d="m31.451 23.763-2.591-3.9a2.38 2.38 0 0 0-1.971-1.041h-3.3V14.66a.75.75 0 0 0-.75-.75h-7.36a.75.75 0 0 0 0 1.5h6.615v14.867h-7.1a3.174 3.174 0 1 0 .432 1.572c0-.025-.007-.048-.008-.072h9.139c0 .027-.008.052-.008.079a3.205 3.205 0 0 0 6.41 0c0-.027-.007-.052-.008-.079h.076a2.391 2.391 0 0 0 2.386-2.39v-3.1a2.351 2.351 0 0 0-1.962-2.525M12.213 33.55a1.7 1.7 0 1 1 1.713-1.7 1.708 1.708 0 0 1-1.713 1.7m15.541 0a1.695 1.695 0 1 1 1.7-1.694 1.7 1.7 0 0 1-1.7 1.694m4.159-4.163a.889.889 0 0 1-.886.89h-.5a3.18 3.18 0 0 0-5.538 0h-1.395v-9.956h3.3a.881.881 0 0 1 .727.378L30.4 24.9a.753.753 0 0 0 .625.335c.588 0 .886.355.886 1.057z" style="fill:#fff"/>
            <path data-name="패스 12750" d="M8.114 30.276H4.023a.75.75 0 0 0 0 1.5h4.091a.75.75 0 0 0 0-1.5" style="fill:#fff"/>
            <path data-name="패스 12751" d="M14.593 23.662a.75.75 0 0 0-.75-.75H.75a.75.75 0 0 0 0 1.5h13.093a.75.75 0 0 0 .75-.75" style="fill:#fff"/>
            <path data-name="패스 12752" d="M8.114 20.32h10.639a.75.75 0 1 0 0-1.5H8.114a.75.75 0 1 0 0 1.5" style="fill:#fff"/>
            <path data-name="패스 12753" d="M4.842 20.32h1.637a.75.75 0 0 0 0-1.5H4.842a.75.75 0 1 0 0 1.5" style="fill:#fff"/>
            <path data-name="패스 12754" d="M12.206 15.41h1.637a.75.75 0 0 0 0-1.5h-1.637a.75.75 0 1 0 0 1.5" style="fill:#fff"/>
            <path data-name="패스 12755" d="M26.935 3.273a.75.75 0 0 0-.75.75v9a.75.75 0 0 0 1.085.671l4.909-2.454a.75.75 0 0 0-.67-1.342l-3.824 1.912V4.023a.75.75 0 0 0-.75-.75" style="fill:#fff"/>
            <path data-name="패스 12756" d="M26.935 0a13.055 13.055 0 0 0-12.768 10.438.75.75 0 0 0 1.471.3A11.525 11.525 0 1 1 34.6 21.634a.75.75 0 0 0 1 1.121A13.025 13.025 0 0 0 26.935 0" style="fill:#fff"/>
        </g>
    </g>
</svg>
