<svg xmlns="http://www.w3.org/2000/svg" width="82" height="82" viewBox="0 0 82 82">
    <g data-name="1th_off_icon">
        <path data-name="패스 12396" d="M26.666 40a4.187 4.187 0 0 1-.8 2.663 2.523 2.523 0 0 1-2.086 1.023h-1.07v-3.228l-1.819 3.232h-6.17a2.524 2.524 0 0 1-2.086-1.023 4.187 4.187 0 0 1-.8-2.663V27.1a4.19 4.19 0 0 1 .8-2.663 2.524 2.524 0 0 1 2.086-1.023h9.058a2.523 2.523 0 0 1 2.086 1.023 4.19 4.19 0 0 1 .8 2.663v2.8H22.71v-1.94h-6.921v11.185h6.921v-2.853h-3.242V31.7h7.2z" transform="translate(3.275 6.169)" style="fill:#9cb2ff"/>
        <path data-name="패스 12397" d="M35.576 38.98a4.85 4.85 0 0 1-.207 1.464 3.316 3.316 0 0 1-.594 1.123 2.828 2.828 0 0 1-.91.734 2.494 2.494 0 0 1-1.136.264H26.5a2.479 2.479 0 0 1-1.147-.264 2.881 2.881 0 0 1-.9-.734 3.313 3.313 0 0 1-.593-1.123 4.85 4.85 0 0 1-.207-1.464v-8.61a4.768 4.768 0 0 1 .207-1.439 3.333 3.333 0 0 1 .593-1.124 2.728 2.728 0 0 1 .9-.719 2.558 2.558 0 0 1 1.147-.252h6.23a2.574 2.574 0 0 1 1.136.252 2.682 2.682 0 0 1 .91.719 3.335 3.335 0 0 1 .594 1.124 4.768 4.768 0 0 1 .207 1.439zm-3.876-7.7h-4.174v6.843H31.7z" transform="translate(6.62 7.192)" style="fill:#9cb2ff"/>
        <path data-name="패스 12398" d="M41.057 42.565h-4.9a2.479 2.479 0 0 1-1.147-.264 2.876 2.876 0 0 1-.9-.734 3.293 3.293 0 0 1-.594-1.123 4.85 4.85 0 0 1-.207-1.464v-8.61a4.768 4.768 0 0 1 .207-1.439 3.312 3.312 0 0 1 .594-1.124 2.723 2.723 0 0 1 .9-.719 2.558 2.558 0 0 1 1.147-.252h6.23a2.584 2.584 0 0 1 1.138.252 2.69 2.69 0 0 1 .909.719 3.312 3.312 0 0 1 .594 1.124 4.768 4.768 0 0 1 .207 1.439v8.61c0 .538-1.7 1.363-1.7 1.363s-1.071 1.018-1.329 1.329m-.844-10.393h-4.178v6.843h4.173z" transform="translate(9.335 7.192)" style="fill:#9cb2ff"/>
        <path data-name="패스 12399" d="M42.967 40.324v-8.61a4.768 4.768 0 0 1 .207-1.439 3.333 3.333 0 0 1 .593-1.124 2.728 2.728 0 0 1 .9-.719 2.554 2.554 0 0 1 1.147-.252h5.2v-5.43h3.876l.078 12.292m-3.987 1.329.032-3.749h-4.17v5.514z" transform="translate(12.049 6.046)" style="fill:#9cb2ff"/>
        <path data-name="패스 12400" d="M25.7 75.244a1.284 1.284 0 1 1 0-2.568c4.674 0 5.727-3.184 7.486-9.808 1.573-5.925 3.531-13.3 10.175-19.83s14.144-8.455 20.171-10c6.738-1.729 9.977-2.764 9.977-7.359a1.306 1.306 0 0 1 2.612 0 7.61 7.61 0 0 1-3.711 6.947c-2.123 1.333-4.947 2.058-8.218 2.9-5.721 1.468-12.842 3.295-18.984 9.333s-8 13.039-9.495 18.663c-.854 3.216-1.591 5.993-2.947 8.079a7.812 7.812 0 0 1-7.066 3.643z" transform="translate(5.878 6.756)" style="fill:#9cb2ff"/>
        <path data-name="패스 12401" d="M32.672 82.036a10.666 10.666 0 0 1-3.09-.458 41.543 41.543 0 0 1-4.632-1.71 1.282 1.282 0 0 1 1.03-2.349 38.973 38.973 0 0 0 4.344 1.6 8.1 8.1 0 0 0 2.347.348h.059a1.283 1.283 0 0 1 .019 2.565h-.078zm6.776-2.97a1.283 1.283 0 0 1-.907-2.189l5.335-5.337a1.282 1.282 0 0 1 1.813 1.814l-5.335 5.337a1.278 1.278 0 0 1-.906.376zm-20.57-2.749a1.276 1.276 0 0 1-.723-.224 41.986 41.986 0 0 1-5.978-4.969 1.282 1.282 0 1 1 1.814-1.812 39.415 39.415 0 0 0 5.609 4.664 1.283 1.283 0 0 1-.725 2.341zm31.24-7.925a1.283 1.283 0 0 1-.907-2.189l5.335-5.337a1.282 1.282 0 1 1 1.813 1.814l-5.335 5.337a1.278 1.278 0 0 1-.906.376zM8.28 65.7a1.28 1.28 0 0 1-1.06-.56 41.721 41.721 0 0 1-3.763-6.8 1.282 1.282 0 1 1 2.35-1.026 39.15 39.15 0 0 0 3.531 6.385A1.283 1.283 0 0 1 8.28 65.7zm52.508-7.978a1.283 1.283 0 0 1-.907-2.189l5.335-5.337a1.282 1.282 0 1 1 1.813 1.814l-5.335 5.337a1.278 1.278 0 0 1-.906.372zm-58.51-5.78a1.283 1.283 0 0 1-1.249-1 41.865 41.865 0 0 1-1.006-7.71 1.282 1.282 0 1 1 2.562-.095 39.292 39.292 0 0 0 .944 7.237 1.283 1.283 0 0 1-1.251 1.567zm69.179-4.9a1.283 1.283 0 0 1-.907-2.189l5.335-5.337a1.282 1.282 0 0 1 1.815 1.816l-5.335 5.337a1.278 1.278 0 0 1-.908.376zm-69.736-10.1a1.283 1.283 0 0 1-1.269-1.473 41.114 41.114 0 0 1 1.88-7.549 1.282 1.282 0 1 1 2.418.853 38.54 38.54 0 0 0-1.762 7.077 1.283 1.283 0 0 1-1.267 1.092zM80.629 35.4a1.283 1.283 0 0 1-1.268-1.482 8.124 8.124 0 0 0-.251-3.6 39.095 39.095 0 0 0-1.062-3.048 1.282 1.282 0 1 1 2.384-.944c.421 1.063.8 2.156 1.132 3.249a10.7 10.7 0 0 1 .33 4.738 1.283 1.283 0 0 1-1.265 1.087zM6.7 22.789a1.283 1.283 0 0 1-1.1-1.927 42.268 42.268 0 0 1 4.51-6.33 1.282 1.282 0 1 1 1.942 1.675 39.7 39.7 0 0 0-4.235 5.945 1.281 1.281 0 0 1-1.117.637zm69.121-1.424a1.281 1.281 0 0 1-1.084-.6 39.385 39.385 0 0 0-4.459-5.777 1.282 1.282 0 1 1 1.875-1.749 41.958 41.958 0 0 1 4.75 6.154 1.283 1.283 0 0 1-1.082 1.969zM16.5 11.416a1.283 1.283 0 0 1-.8-2.283 42.15 42.15 0 0 1 6.48-4.283 1.282 1.282 0 0 1 1.209 2.262 39.58 39.58 0 0 0-6.089 4.022 1.276 1.276 0 0 1-.8.282zm49.09-1.029a1.276 1.276 0 0 1-.759-.25 39.192 39.192 0 0 0-6.252-3.76 1.282 1.282 0 0 1 1.11-2.312 41.761 41.761 0 0 1 6.662 4.007 1.283 1.283 0 0 1-.761 2.315zM29.732 4.35a1.283 1.283 0 0 1-.382-2.507 41.034 41.034 0 0 1 7.61-1.6 1.283 1.283 0 0 1 .288 2.549 38.463 38.463 0 0 0-7.133 1.5 1.281 1.281 0 0 1-.383.058zm22.337-.457a1.283 1.283 0 0 1-.33-.043 39.108 39.108 0 0 0-7.194-1.2 1.283 1.283 0 0 1 .184-2.563A41.677 41.677 0 0 1 52.4 1.371a1.283 1.283 0 0 1-.328 2.522z" transform="translate(-.022 -.084)" style="fill:#9cb2ff"/>
        <path data-name="패스 12402" d="M26.393 75.759a10.764 10.764 0 0 1-3.109-.46 1.283 1.283 0 1 1 .746-2.456 7.972 7.972 0 0 0 7.947-1.94L71.1 31.94a7.9 7.9 0 0 0 1.947-7.916 1.288 1.288 0 0 1 2.466-.743 10.451 10.451 0 0 1-2.592 10.474L33.8 72.717a10.475 10.475 0 0 1-7.407 3.042z" transform="translate(6.028 6.196)" style="fill:#9cb2ff"/>
    </g>
</svg>
