<svg xmlns="http://www.w3.org/2000/svg" width="40" height="28" viewBox="0 0 40 28">
    <defs>
        <clipPath id="uh98dqp6sa">
            <path data-name="사각형 12567" style="fill:#9cb2ff" d="M0 0h28.749v23.75H0z"/>
        </clipPath>
    </defs>
    <path style="fill:none" d="M0 0h40v28H0z"/>
    <g data-name="그룹 3848">
        <g data-name="그룹 3847" style="clip-path:url(#uh98dqp6sa)" transform="translate(6 1.875)">
            <path data-name="패스 12779" d="M25.582 0H6.459a3.209 3.209 0 0 0-3.12 2.714A3.911 3.911 0 0 0 0 6.577v9.4a3.915 3.915 0 0 0 2.944 3.8l-.883 3.013a.75.75 0 0 0 1.091.863l6.6-3.753h9.109a.75.75 0 1 0 0-1.5H9.55a.769.769 0 0 0-.371.1l-5.157 2.931.607-2.073a.75.75 0 0 0-.719-.96 2.414 2.414 0 0 1-2.41-2.421v-9.4a2.39 2.39 0 0 1 1.792-2.33v8.644a3.215 3.215 0 0 0 3.167 3.254h13.467l6.787 3.947-1.13-3.946a3.214 3.214 0 0 0 3.167-3.252V3.252A3.214 3.214 0 0 0 25.582 0M11.624 12.608h-1.585V5.351h-.9V3.964h2.485zm5.3-.9H15.1v-1.659h1.822zm0-4.91H15.1V5.135h1.822zm5.039 5.808h-1.581V5.351h-.9V3.964h2.483z" style="fill:#9cb2ff"/>
        </g>
    </g>
</svg>
