<svg xmlns="http://www.w3.org/2000/svg" width="180" height="26" viewBox="0 0 180 26">
    <path data-name="패스 1" d="M23.641 21.491C11.859 17.513 2.144 10.644 3.849 5.7c1.4-4.051 8.959-5.446 18.215-3.824.5-.1 1.109-.223 1.72-.334C11.828-1.244 1.826-.227.22 4.35-1.6 9.536 8.023 17.377 21.868 22.129z" style="fill:#00347d"/>
    <path data-name="패스 2" d="m75.255 12.381.039-.016c-.206-.092-.4-.181-.6-.273-.095-.05-.192-.1-.294-.147l-.006.01c-1.9-.854-3.629-1.489-3.629-1.489l-1.858.42a25.351 25.351 0 0 1 4.245 1.805c7.4 4.079 13.027 10.183 11.717 14.1-1.131 3.413-6.325 5.012-13.188 4.6a10.469 10.469 0 0 1-1.905.7c10.073 1.75 18.033.424 19.462-3.78 1.441-4.27-4.61-11.128-13.98-15.934" transform="translate(-35.316 -6.847)" style="fill:#00347d"/>
    <path data-name="패스 3" d="M56.007 20.721c-7.023-4.226-8.463-4.439-5.965-6.706A23.911 23.911 0 0 0 44 21.03s5.93 3 8.186 5.111a3.119 3.119 0 0 1 .77 2.652c-.467 1.715-2.371 3.582-7.424 3.605 0 0 7.393 2.022 12.17-.118s5.32-7.334-1.7-11.559" transform="translate(-22.68 -8.676)" style="fill:#00347d"/>
    <path data-name="패스 4" d="m54.076 2.679-13.184-.743 3.746 1.377a31.4 31.4 0 0 0-13.41 7.948l2.19 1.258c3.48-4.213 9.776-8.993 20.657-9.84" transform="translate(-16.096 -.998)" style="fill:#f38200"/>
    <path data-name="패스 5" d="m36.708 14.117 2.984 1.711a22.164 22.164 0 0 1 2.1-3.12 23.479 23.479 0 0 1 13.844-8.2C50.28 5.1 42.24 7.189 36.708 14.117" transform="translate(-18.92 -2.326)" style="fill:#f38200"/>
    <path data-name="패스 6" d="M234.83 15.742h-1.156v-5.107h-2.407v19.789l2.407-1.982v-10.4h1.156v12.382l2.49-1.982V10.635h-2.49z" transform="translate(-118.587 -6.933)" style="fill:#00347d"/>
    <path data-name="패스 7" d="M249.582 39.58v.014a1.294 1.294 0 0 0 0 2.572v.016h16.967v-2.6z" transform="translate(-127.338 -21.521)" style="fill:#00347d"/>
    <path data-name="패스 8" d="m320.638 30.424 2.609-1.982V10.635h-2.609z" transform="translate(-164.317 -6.933)" style="fill:#00347d"/>
    <path data-name="패스 9" d="M360.478 15.742v-5.107h-2.613v19.786l2.613-1.984v-10.4h3.022v-2.3z" transform="translate(-183.504 -6.933)" style="fill:#00347d"/>
    <path data-name="패스 10" d="M290.431 10.914v.014a1.294 1.294 0 0 0 0 2.574v.013h1.4v8.157h-1.4v.009a1.295 1.295 0 0 0 0 2.575v.011h12.534v-2.596h-2.138v-8.157h2.138v-2.6zm7.8 10.757h-3.8v-8.157h3.8z" transform="translate(-148.151 -6.17)" style="fill:#00347d"/>
    <path data-name="패스 11" d="M335.8 10.635c-3.385 0-6.133 3.052-6.133 6.815s2.748 6.811 6.133 6.811 6.138-3.049 6.138-6.811-2.747-6.815-6.138-6.815m0 10.833a3.8 3.8 0 0 1-3.5-4.018 3.539 3.539 0 1 1 7.012 0 3.8 3.8 0 0 1-3.509 4.018" transform="translate(-168.97 -6.023)" style="fill:#00347d"/>
    <path data-name="패스 12" d="M210.64 10.635c-3.211 0-5.807 3.052-5.807 6.815s2.6 6.811 5.807 6.811 5.8-3.049 5.8-6.811-2.6-6.815-5.8-6.815m0 10.833c-1.776 0-3.228-1.807-3.228-4.018s1.452-4.022 3.228-4.022 3.224 1.808 3.224 4.022-1.449 4.018-3.224 4.018" transform="translate(-105.014 -6.023)" style="fill:#00347d"/>
    <path data-name="패스 13" d="M254.187 21.23h12.422v-2.6h-12.16a.874.874 0 0 1-.911-.909v-3.573a.875.875 0 0 1 .911-.909h12.159v-2.6h-12.421a3.248 3.248 0 0 0-3.247 3.254v4.094a3.247 3.247 0 0 0 3.247 3.248" transform="translate(-128.635 -5.926)" style="fill:#00347d"/>
    <path data-name="패스 14" d="M181.72 22.917h-3.62v2.25h3.616v2.607h-9.742a.866.866 0 0 1-.9-.9v-3.117h-2.593v3.371a3.24 3.24 0 0 0 3.234 3.237h10.015l2.586-2.591v-17.1h-2.6z" transform="translate(-86.365 -6.956)" style="fill:#00347d"/>
    <path data-name="패스 15" d="M135.684 17.64a4.682 4.682 0 0 1-2.978-2.115c-1.058-1.639-.977-3.788-.991-5.257h-2.693c-.013 1.469.065 3.617-.993 5.257a4.817 4.817 0 0 1-2.975 2.2 1.475 1.475 0 0 0-.974 1.365 1.248 1.248 0 0 0 1.293 1.19 1.41 1.41 0 0 0 .244-.024c.039-.009.08-.022.119-.029a6.817 6.817 0 0 0 1.874-.749 8.3 8.3 0 0 0 2.718-2.7l.039-.057v.008c.011.022.031.034.039.049a8.01 8.01 0 0 0 2.714 2.614 6.814 6.814 0 0 0 1.873.75c.044 0 .08.026.123.028a1.429 1.429 0 0 0 .241.025A1.244 1.244 0 0 0 136.654 19a1.466 1.466 0 0 0-.97-1.359" transform="translate(-63.612 -5.707)" style="fill:#00347d"/>
    <path data-name="패스 16" d="M167.207 13.969c0 2.466 2.706 4.466 6.039 4.466s6.041-2 6.041-4.466-2.706-4.461-6.041-4.461-6.039 2-6.039 4.461m9.337 0c0 1.192-1.478 2.169-3.3 2.169s-3.3-.978-3.3-2.169 1.481-2.16 3.3-2.16 3.3.971 3.3 2.16" transform="translate(-85.722 -5.262)" style="fill:#00347d"/>
    <path data-name="패스 17" d="M171.4 34.744h2.589v-3.8h4.578v-2.328h-11.914a1.171 1.171 0 1 0 0 2.329h4.747z" transform="translate(-84.773 -15.694)" style="fill:#00347d"/>
    <path data-name="패스 18" d="M146.162 10.634h-2.643v3.432h-4.4v2.281h4.4v5.716a10.561 10.561 0 0 0-4.327-1.1c-3.145 0-6.839 2.036-6.839 5.049s3.694 5.05 6.839 5.05 6.84-2.038 6.84-5.05a4.367 4.367 0 0 0-1.292-3.139l1.422-1.276zm-6.844 17.8c-1.668 0-4.16-.894-4.16-2.485s2.492-2.488 4.16-2.488 4.16.894 4.16 2.488-2.5 2.485-4.16 2.485" transform="translate(-67.85 -6.933)" style="fill:#00347d"/>
</svg>
