<svg xmlns="http://www.w3.org/2000/svg" width="40" height="28" viewBox="0 0 40 28">
    <defs>
        <clipPath id="1v0l17k4la">
            <path data-name="사각형 12568" style="fill:#fff" d="M0 0h29.498v26.251H0z"/>
        </clipPath>
    </defs>
    <path style="fill:none" d="M0 0h40v28H0z"/>
    <g data-name="그룹 3850">
        <g data-name="그룹 3849" style="clip-path:url(#1v0l17k4la)" transform="translate(5 .875)">
            <path data-name="패스 12780" d="M19.171 8.428H16c.048-.788-.621-1.219-1.575-1.219s-1.551.478-1.551 1.219c0 .908.6 1.29 1.862 1.362 3.055.191 4.845 1.6 4.845 4.3-.004 2.557-2.081 4.21-5.016 4.21-2.792 0-4.988-1.553-4.988-4.659h3.174a1.639 1.639 0 0 0 1.838 1.759c1.074 0 1.812-.5 1.812-1.438s-.81-1.524-2.218-1.572C11.415 12.3 9.7 11.08 9.7 8.26c0-2.461 1.647-3.966 4.726-3.966s4.84 1.572 4.744 4.134" style="fill:#fff"/>
            <path data-name="패스 12781" d="M29.447 11.236a5.239 5.239 0 0 0-4.334-4.418 8.222 8.222 0 0 0-2.863-4.28A11.579 11.579 0 0 0 15.236 0H14a11.557 11.557 0 0 0-6.99 2.536 8.224 8.224 0 0 0-2.853 4.241 5.209 5.209 0 0 0 .338 10.262.741.741 0 0 0 .105.007.75.75 0 0 0 .742-.646.742.742 0 0 0-.135-.538.733.733 0 0 0 .143-.417V8.594a6.753 6.753 0 0 1 2.593-4.882A10.048 10.048 0 0 1 14.015 1.5h1.207a10.068 10.068 0 0 1 6.1 2.215A6.72 6.72 0 0 1 23.9 8.54v6.853a7.2 7.2 0 0 1-2.6 5.1c-.228.189-.42.357-.591.507a3.157 3.157 0 0 1-2.309 1 .75.75 0 1 0 .184 1.488 4.565 4.565 0 0 0 3.116-1.362c.162-.143.344-.3.559-.48a8.674 8.674 0 0 0 2.876-4.546 5.22 5.22 0 0 0 4.312-5.864" style="fill:#fff"/>
            <path data-name="패스 12782" d="M15.8 26.251a3.382 3.382 0 1 1 3.379-3.382 3.384 3.384 0 0 1-3.379 3.382m0-5.264a1.882 1.882 0 1 0 1.879 1.882 1.883 1.883 0 0 0-1.879-1.882" style="fill:#fff"/>
        </g>
    </g>
</svg>
