<svg xmlns="http://www.w3.org/2000/svg" width="82" height="78.096" viewBox="0 0 82 78.096">
    <path data-name="패스 12410" d="M27 8.031h-2V6.625a1 1 0 0 1 .537-.887l4.532-2.365-.928-1.931a1 1 0 0 1-.1-.433V1a1 1 0 0 1 1-1h41.77v2H31.628l.663 1.379a1 1 0 0 1-.439 1.32L27 7.231z" transform="translate(7.188)" style="fill:#9cb2ff"/>
    <path data-name="패스 12411" d="M69.594 67.44H52.385a.971.971 0 1 1 0-1.941h16.209V6.941H27v18.278a1 1 0 0 1-2 0V5.97A.986.986 0 0 1 26 5h43.594a.986.986 0 0 1 1 .97v60.5a.986.986 0 0 1-1 .97z" transform="translate(7.188 2.031)" style="fill:#9cb2ff"/>
    <path data-name="패스 12412" d="M59.186 69.471H57.78v-1.947h.66l1.194-3.908a.966.966 0 0 1 .212-.37L61 61.988V1.947h-.09l-4.451 3.069L58.607 8.1a.955.955 0 0 1 .172.546v1.535h-2V8.945l-2.526-3.626a.957.957 0 0 1 .25-1.341l5.511-3.8A1.019 1.019 0 0 1 60.592 0H62a.987.987 0 0 1 1 .973v61.386a.959.959 0 0 1-.254.648l-1.258 1.372-1.343 4.4a1 1 0 0 1-.959.692z" transform="translate(19.002)" style="fill:#9cb2ff"/>
    <path data-name="패스 12413" d="M45.141 23.063a12.915 12.915 0 0 1-7.029-1.911A6.176 6.176 0 0 1 35 16.037V8a1 1 0 0 1 2 0v8.037c0 2.771 3.652 5.026 8.141 5.026s8.141-2.255 8.141-5.026V8a1 1 0 0 1 2 0v8.037a6.176 6.176 0 0 1-3.112 5.115 12.915 12.915 0 0 1-7.029 1.911z" transform="translate(11.529 4.916)" style="fill:#9cb2ff"/>
    <path data-name="선 30" d="M4.875 1H0a1 1 0 0 1-1-1 1 1 0 0 1 1-1h4.875a1 1 0 0 1 1 1 1 1 0 0 1-1 1z" transform="translate(45.864 16.274)" style="fill:#9cb2ff"/>
    <path data-name="선 31" d="M4.875 1H0a1 1 0 0 1-1-1 1 1 0 0 1 1-1h4.875a1 1 0 0 1 1 1 1 1 0 0 1-1 1z" transform="translate(62.764 16.274)" style="fill:#9cb2ff"/>
    <path data-name="패스 12414" d="M36.508 33.823a1 1 0 0 1-.328-.055l-13.115-4.554c-2.93-1.014-5.565-1.714-7.687-2.272-1.586-.418-2.956-.779-4.095-1.175l.656-1.889c1.066.37 2.4.722 3.948 1.13 2.152.567 4.831 1.273 7.833 2.316l12.8 4.444 24.446-7.9.615 1.9-24.765 8a1 1 0 0 1-.308.055z" transform="translate(1.975 13.341)" style="fill:#9cb2ff"/>
    <path data-name="패스 12416" d="M1.094 9.836A1 1 0 0 1 .732 7.9L21.2-.048a1 1 0 1 1 .724 1.864L1.456 9.767a1 1 0 0 1-.362.069z" transform="translate(25.518 31.865)" style="fill:#9cb2ff"/>
    <path data-name="패스 12415" d="M36.313 66.219a1 1 0 0 1-.362-.068l-25.313-9.844a1 1 0 0 1-.638-.932v-2.812a1 1 0 0 1 2 0v2.128l24.313 9.455 24.313-9.455V26.528l-24.313-9.455L12 26.528v5.04a1 1 0 0 1-2 0v-5.724a1 1 0 0 1 .638-.932l25.312-9.844a1 1 0 0 1 .725 0l25.313 9.844a1 1 0 0 1 .638.932v29.531a1 1 0 0 1-.638.932l-25.313 9.844a1 1 0 0 1-.362.068z" transform="translate(2.454 11.689)" style="fill:#9cb2ff"/>
    <path data-name="선 33" d="M0 2.219a1 1 0 0 1-1-1V0a1 1 0 0 1 1-1 1 1 0 0 1 1 1v1.219a1 1 0 0 1-1 1z" transform="translate(15.75 57.276)" style="fill:#9cb2ff"/>
    <path data-name="선 34" d="M0 3.438a1 1 0 0 1-1-1V0a1 1 0 0 1 1-1 1 1 0 0 1 1 1v2.438a1 1 0 0 1-1 1z" transform="translate(15.75 48.689)" style="fill:#9cb2ff"/>
    <path data-name="선 35" d="M20 1H0a1 1 0 0 1-1-1 1 1 0 0 1 1-1h20a1 1 0 0 1 1 1 1 1 0 0 1-1 1z" transform="translate(1 45.877)" style="fill:#9cb2ff"/>
    <path data-name="선 36" d="M15.844 1H0a1 1 0 0 1-1-1 1 1 0 0 1 1-1h15.844a1 1 0 0 1 1 1 1 1 0 0 1-1 1z" transform="translate(9.656 53.587)" style="fill:#9cb2ff"/>
    <path data-name="선 37" d="M17.063 1H0a1 1 0 0 1-1-1 1 1 0 0 1 1-1h17.063a1 1 0 0 1 1 1 1 1 0 0 1-1 1z" transform="translate(4.781 60.952)" style="fill:#9cb2ff"/>
    <path data-name="선 38" d="M.115 31.047a1 1 0 0 1-1-1L-1 0a1 1 0 0 1 1-1 1 1 0 0 1 1 1l.115 30.047a1 1 0 0 1-1 1z" transform="translate(38.361 47.049)" style="fill:#9cb2ff"/>
    <path data-name="선 39" d="M0 2.219a1 1 0 0 1-.9-.553A1 1 0 0 1-.447.324L1.99-.894a1 1 0 0 1 1.342.447A1 1 0 0 1 2.885.894L.447 2.113A1 1 0 0 1 0 2.219z" transform="translate(56.595 63.398)" style="fill:#9cb2ff"/>
    <path data-name="선 40" d="M0 1.61a1 1 0 0 1-.882-.527A1 1 0 0 1-.473-.272L.661-.881a1 1 0 0 1 1.354.408A1 1 0 0 1 1.608.881L.473 1.49A1 1 0 0 1 0 1.61z" transform="translate(53.218 66.128)" style="fill:#9cb2ff"/>
</svg>
