<svg xmlns="http://www.w3.org/2000/svg" width="48" height="28" viewBox="0 0 48 28">
    <defs>
        <clipPath id="c5x1xvlsaa">
            <path data-name="사각형 12346" transform="translate(-.408)" style="fill:#4d6ee4" d="M0 0h48v28H0z"/>
        </clipPath>
    </defs>
    <g data-name="그룹 3312" transform="translate(.408)" style="clip-path:url(#c5x1xvlsaa)">
        <path data-name="패스 12143" d="M48 14a13.757 13.757 0 0 1-4.19 9.9A14.377 14.377 0 0 1 33.7 28a14.554 14.554 0 0 1-9.255-3.314h-7.619a.707.707 0 1 1 0-1.413H26.2a12.114 12.114 0 0 0 7.5 2.567A11.992 11.992 0 0 0 45.826 14a12.163 12.163 0 0 0-23.841-3.086h-4.82a.657.657 0 1 1 0-1.312h2.958a12.708 12.708 0 0 1 1.615-3.279h-6.29a.681.681 0 1 1 0-1.362h7.319c.257-.252.528-.577.813-.855a13.55 13.55 0 0 1 3.239-2.373h-3.99a.687.687 0 0 1-.687-.681.687.687 0 0 1 .686-.682h7.565A17.823 17.823 0 0 1 33.7 0a14.375 14.375 0 0 1 10.11 4.1A13.757 13.757 0 0 1 48 14M18.537 1.732h1.373a.687.687 0 0 0 .687-.681.687.687 0 0 0-.686-.681h-1.374a.687.687 0 0 0-.687.681.687.687 0 0 0 .687.681M11.1 6.323h1.373a.681.681 0 1 0 0-1.362H11.1a.681.681 0 1 0 0 1.362m.858 3.935a.666.666 0 0 0 .687.656h1.373a.657.657 0 1 0 0-1.312h-1.374a.666.666 0 0 0-.687.656M6.58 15.5h1.373a.707.707 0 0 0 0-1.413H6.58a.707.707 0 0 0 0 1.413m6.92 3.233H6.58a.707.707 0 0 0 0 1.413h6.92a.707.707 0 0 0 0-1.413m3.09 0a.707.707 0 0 0 0 1.413h6.69a11.959 11.959 0 0 1-1.716-6.054h-9.091a.707.707 0 0 0 0 1.413h7a14.427 14.427 0 0 0 .756 3.229zm-14.532 0H.687a.707.707 0 0 0 0 1.413H2.06a.707.707 0 0 0 0-1.413m10.184 4.54h-1.373a.707.707 0 0 0 0 1.413h1.373a.707.707 0 0 0 0-1.413M33.275 6.652a1.05 1.05 0 0 0-1.057 1.063V14a1.032 1.032 0 0 0 0 .1v.047c0 .016 0 .037.007.056s.008.035.013.053l.012.048.018.05.018.048.022.046c.008.015.015.033.024.048l.026.043c.009.014.018.031.029.046l.034.046.029.038c.01.012.046.053.071.077l5.337 5.221a1.106 1.106 0 0 0 1.538 0 1.048 1.048 0 0 0-.026-1.5l-5.043-4.909V7.715a1.05 1.05 0 0 0-1.057-1.063" transform="translate(0 .001)" style="fill:#4d6ee4"/>
    </g>
</svg>
