<svg xmlns="http://www.w3.org/2000/svg" width="40" height="28" viewBox="0 0 40 28">
    <defs>
        <clipPath id="y5tlnlt83a">
            <path data-name="사각형 12566" style="fill:#fff" d="M0 0h30.411v24.5H0z"/>
        </clipPath>
    </defs>
    <path style="fill:none" d="M0 0h40v28H0z"/>
    <g data-name="그룹 3846">
        <g data-name="그룹 3845" style="clip-path:url(#y5tlnlt83a)" transform="translate(5 2.75)">
            <path data-name="패스 12777" d="M23.08 20.269h-1.953V19a8.136 8.136 0 0 1-1.394.235v3.861H5.312v-4.645H15.57a8.238 8.238 0 0 1-2.06-1.405H2.3v1.405h1.617v1.818H1.965a.576.576 0 0 1-.57-.58v-7.763a.577.577 0 0 1 .57-.581h8.942c0-.072-.013-.144-.014-.217a8.518 8.518 0 0 1 .08-1.188H5.312v-2.7h5.763V1.4h8.658v1.433a8.12 8.12 0 0 1 1.394.225V0h-11.04l-6.17 6.247V9.94H1.965A1.978 1.978 0 0 0 0 11.926v7.763a1.978 1.978 0 0 0 1.965 1.986h1.952V24.5h17.21v-2.825h1.953a1.936 1.936 0 0 0 1.106-.347L23.1 20.265a.128.128 0 0 1-.019 0M9.68 2.4v3.43H6.293z" style="fill:#fff"/>
            <path data-name="패스 12778" d="M29.861 18.974 26.6 15.785a.467.467 0 0 0-.143-.1.385.385 0 0 0-.059-.012.439.439 0 0 0-.122-.022.46.46 0 0 0-.322.138l-.443.453-.464-.461-1-.987a6.219 6.219 0 0 0-4.318-9.965c-.2-.02-.405-.029-.61-.029a6.218 6.218 0 0 0-6.13 5.14 6.348 6.348 0 0 0-.1 1.165c0 .081.011.16.015.241a6.191 6.191 0 0 0 4.6 5.7 6.27 6.27 0 0 0 1.611.215 6 6 0 0 0 1.509-.215 6.275 6.275 0 0 0 2.363-1.167l.658.653.8.8-.413.423a.456.456 0 0 0 .007.645l1 .975 2.265 2.214a1.825 1.825 0 1 0 2.551-2.611m-6.211-6.7a4.692 4.692 0 0 1-9.218-.928 4.757 4.757 0 0 1 .117-1.406 4.663 4.663 0 0 1 4.572-3.624 4.6 4.6 0 0 1 .611.059 4.656 4.656 0 0 1 4 3.688 4.728 4.728 0 0 1-.086 2.211" style="fill:#fff"/>
        </g>
    </g>
</svg>
