<svg xmlns="http://www.w3.org/2000/svg" width="40" height="28" viewBox="0 0 40 28">
    <defs>
        <clipPath id="hluoofksma">
            <path data-name="사각형 12569" style="fill:#9cb2ff" d="M0 0h29.498v26.251H0z"/>
        </clipPath>
    </defs>
    <path style="fill:none" d="M0 0h40v28H0z"/>
    <g data-name="그룹 3852">
        <g data-name="그룹 3851" style="clip-path:url(#hluoofksma)" transform="translate(5 .875)">
            <path data-name="패스 12783" d="M29.447 11.236a5.239 5.239 0 0 0-4.334-4.418 8.222 8.222 0 0 0-2.863-4.28A11.579 11.579 0 0 0 15.236 0H14a11.557 11.557 0 0 0-6.99 2.536 8.224 8.224 0 0 0-2.853 4.241 5.209 5.209 0 0 0 .338 10.262.741.741 0 0 0 .105.007.75.75 0 0 0 .742-.646.742.742 0 0 0-.135-.538.733.733 0 0 0 .143-.417V8.594a6.753 6.753 0 0 1 2.593-4.882A10.048 10.048 0 0 1 14.015 1.5h1.207a10.068 10.068 0 0 1 6.1 2.215A6.72 6.72 0 0 1 23.9 8.54v6.853a7.2 7.2 0 0 1-2.6 5.1c-.228.189-.42.357-.591.507a3.157 3.157 0 0 1-2.309 1 .75.75 0 1 0 .184 1.488 4.565 4.565 0 0 0 3.116-1.362c.162-.143.344-.3.559-.48a8.674 8.674 0 0 0 2.876-4.546 5.22 5.22 0 0 0 4.312-5.864" style="fill:#9cb2ff"/>
            <path data-name="패스 12784" d="M15.8 26.251a3.382 3.382 0 1 1 3.379-3.382 3.384 3.384 0 0 1-3.379 3.382m0-5.264a1.882 1.882 0 1 0 1.879 1.882 1.883 1.883 0 0 0-1.879-1.882" style="fill:#9cb2ff"/>
            <path data-name="패스 12785" d="M19.743 10.291a5.3 5.3 0 0 1-1.377-.591.921.921 0 0 1-.467-.778.957.957 0 0 1 .4-.8 1.806 1.806 0 0 1 1.118-.3 1.693 1.693 0 0 1 1.157.363 1.281 1.281 0 0 1 .411 1.015h1.961a2.731 2.731 0 0 0-.441-1.53 2.888 2.888 0 0 0-1.239-1.042 4.27 4.27 0 0 0-1.818-.37 4.714 4.714 0 0 0-1.827.34 3.268 3.268 0 0 0-.66.373l.2-.582h-1.409L13.815 12.1l-2.139-5.712H9.859l-3.544 9.519H8.4l.653-1.961h3.439l.347 1.031-.592 1.747h1.406l.277-.817.622-1.834 1.5-4.423a2.9 2.9 0 0 0 1.507 1.628 9.971 9.971 0 0 0 1.615.651 5.144 5.144 0 0 1 1.412.627 1.007 1.007 0 0 1 .392.854.924.924 0 0 1-.392.794 1.827 1.827 0 0 1-1.092.284q-1.882 0-1.883-1.575h-1.968a2.82 2.82 0 0 0 .474 1.621 3.168 3.168 0 0 0 1.377 1.1 4.858 4.858 0 0 0 2 .4 4.089 4.089 0 0 0 2.517-.7 2.29 2.29 0 0 0 .935-1.938 2.487 2.487 0 0 0-.765-1.857 5.952 5.952 0 0 0-2.438-1.249M9.584 12.357l1.183-3.563 1.2 3.563z" style="fill:#9cb2ff"/>
        </g>
    </g>
</svg>
