<svg xmlns="http://www.w3.org/2000/svg" width="42" height="42" viewBox="0 0 42 42">
    <defs>
        <clipPath id="wn8mozozfa">
            <path data-name="사각형 12556" style="fill:#9cb2ff" d="M0 0h31.211v33.482H0z"/>
        </clipPath>
    </defs>
    <path style="fill:none" d="M0 0h42v42H0z"/>
    <g data-name="그룹 3826">
        <g data-name="그룹 3825" style="clip-path:url(#wn8mozozfa)" transform="translate(5.395 4.258)">
            <path data-name="패스 12757" d="M14.839 3.518v1.831c0 .365 0 .7-.023 1.017a5.855 5.855 0 0 1-.118.9 3.822 3.822 0 0 1-.283.83 4.232 4.232 0 0 1-.52.818 8.466 8.466 0 0 1-1.378 1.327c-.048.038-.107.08-.158.12-.449.349-.986.726-1.614 1.138-.76.5-1.646 1.045-2.715 1.671l1.07 1.622c1.744-1.056 3.083-1.923 4.131-2.686.115-.084.233-.168.341-.249.026-.02.047-.038.073-.057.429-.327.806-.635 1.128-.93.025-.023.057-.047.081-.071.163-.151.306-.3.444-.442a7.272 7.272 0 0 0 .5-.577 4.892 4.892 0 0 0 .588-.983 8.141 8.141 0 0 0 .475-3.427v-3.6H8.4v1.748z" style="fill:#9cb2ff"/>
            <path data-name="패스 12758" d="M30.765 16.851a2.091 2.091 0 0 0-1.659-.81h-1.249v-3.33a2.366 2.366 0 0 0-2.357-2.354h-1.01v1.5h1.01a.856.856 0 0 1 .855.854v3.33h-3.863V8.785h2.921V7.016h-2.921V0h-2.037v16.041H6.606a2.112 2.112 0 0 0-2.021 1.516L1.5 27.6V9.5a.856.856 0 0 1 .855-.854h6.421a.856.856 0 0 1 .854.854 2.352 2.352 0 0 0 .033.327c.55-.356.995-.669 1.371-.956a2.352 2.352 0 0 0-2.258-1.724H2.355A2.358 2.358 0 0 0 0 9.5v21.628a2.358 2.358 0 0 0 2.355 2.355H25.5a2.339 2.339 0 0 0 1.73-.771 2.093 2.093 0 0 0 .665-1.073l3.251-12.981a2.1 2.1 0 0 0-.383-1.807" style="fill:#9cb2ff"/>
        </g>
    </g>
</svg>
