<svg xmlns="http://www.w3.org/2000/svg" width="30" height="30" viewBox="0 0 30 30">
    <defs>
        <clipPath id="10qtout5na">
            <path data-name="사각형 12468" style="fill:none" d="M0 0h20v22H0z"/>
        </clipPath>
    </defs>
    <path data-name="사각형 12466" style="fill:none" d="M0 0h30v30H0z"/>
    <g data-name="그룹 3415">
        <g data-name="그룹 3414" transform="translate(5 5.001)" style="clip-path:url(#10qtout5na)">
            <path data-name="패스 12386" d="m19.62 18.821-4.42-4.715a9.48 9.48 0 0 0 1.466-5.152C16.663 4.016 13.137 0 8.8 0a7.689 7.689 0 0 0-6.285 3.58 1.015 1.015 0 0 0 .369 1.4 1.048 1.048 0 0 0 1.423-.359A5.578 5.578 0 0 1 8.8 2.051c3.189 0 5.784 3.1 5.784 6.9 0 4.129-2.991 6.9-5.784 6.9a5.49 5.49 0 0 1-4.635-2.81l-.155-.218a1.048 1.048 0 0 0-1.45-.237 1.016 1.016 0 0 0-.24 1.431l.137.194A7.515 7.515 0 0 0 8.8 17.909a6.954 6.954 0 0 0 3.366-.925l4.379 4.665c.551.583 1.689.424 2.537-.357s1.088-1.889.537-2.472" transform="translate(.084)" style="fill:#1f1f20"/>
            <path data-name="패스 12387" d="M4.124 8.595A2.048 2.048 0 0 0 2.062 6.56a2.035 2.035 0 1 0 0 4.07 2.048 2.048 0 0 0 2.062-2.035" transform="translate(0 .168)" style="fill:#1f1f20"/>
        </g>
    </g>
</svg>
