<svg xmlns="http://www.w3.org/2000/svg" width="31.5" height="28.5" viewBox="0 0 31.5 28.5">
    <path data-name="패스 364" d="M4.525 19.54v-6.621C4.525 6.336 9.569 1 15.793 1s10.219 2.431 10.476 10.154" transform="translate(.398 -.25)" style="fill:none;stroke:#f8fafc;stroke-linecap:round;stroke-linejoin:round;stroke-miterlimit:10;stroke-width:1.5px"/>
    <path data-name="패스 366" d="M5.25 22.9H3.41A2.412 2.412 0 0 1 1 20.488v-3.679A2.412 2.412 0 0 1 3.41 14.4h1.84z" transform="translate(-.249 -2.479)" style="fill:none;stroke:#f8fafc;stroke-linecap:round;stroke-linejoin:round;stroke-miterlimit:10;stroke-width:1.5px"/>
    <path data-name="패스 367" d="M22.065 9.461c0 3.85-3.468 6.972-7.747 6.972H7.346v6.972c0 5.391 4.856 9.762 10.845 9.762s10.846-4.367 10.846-9.762V16.4c-3.915-.351-6.972-3.324-6.972-6.939z" transform="translate(-2.405 -5.417)" style="fill:none;stroke:#f8fafc;stroke-linecap:round;stroke-linejoin:round;stroke-miterlimit:10;stroke-width:1.5px"/>
    <path data-name="패스 368" d="M20.333 25.142h4.189c2.467 0 4.467-1.262 4.467-2.819v-1.975" transform="translate(-2.357 -3.24)" style="fill:none;stroke:#f8fafc;stroke-linecap:round;stroke-linejoin:round;stroke-miterlimit:10;stroke-width:1.5px"/>
    <path data-name="패스 369" d="M19.281 27.768a2.089 2.089 0 1 0-2.089 2.089 2.089 2.089 0 0 0 2.089-2.089z" transform="translate(-1.652 -6.52)" style="fill:none;stroke:#f8fafc;stroke-linecap:round;stroke-linejoin:round;stroke-miterlimit:10;stroke-width:1.5px"/>
    <path data-name="패스 370" d="M1 22.9h1.84a2.412 2.412 0 0 0 2.41-2.412v-3.679A2.412 2.412 0 0 0 2.839 14.4H1z" transform="translate(25.5 -3.036)" style="fill:none;stroke:#f8fafc;stroke-linecap:round;stroke-linejoin:round;stroke-miterlimit:10;stroke-width:1.5px"/>
</svg>
