<svg xmlns="http://www.w3.org/2000/svg" width="14" height="20" viewBox="0 0 14 20">
    <path data-name="사각형 2497" style="fill:none" d="M0 0h14v20H0z"/>
    <path data-name="패스 1789" d="M109.777 87.979a4.165 4.165 0 1 0-4.182-4.165 4.178 4.178 0 0 0 4.182 4.165zm0-6.93A2.765 2.765 0 1 1 107 83.814a2.774 2.774 0 0 1 2.777-2.765z" transform="translate(-102.595 -79.649)" style="fill:#fff"/>
    <path data-name="패스 1790" d="M116.276 95.1a5.879 5.879 0 0 0-5.884-5.861h-1.231a5.881 5.881 0 0 0-5.885 5.861c0 2.553 2.856 4.553 6.5 4.553s6.5-2 6.5-4.553zm-6.5 3.154c-2.762 0-5.1-1.444-5.1-3.154a4.475 4.475 0 0 1 4.479-4.461h1.231a4.477 4.477 0 0 1 4.479 4.461c.005 1.705-2.327 3.149-5.088 3.149z" transform="translate(-102.276 -79.649)" style="fill:#fff"/>
</svg>
