<svg xmlns="http://www.w3.org/2000/svg" width="40" height="40" viewBox="0 0 40 40">
    <g data-name="그룹 3757">
        <path data-name="패스 12411" d="M16.9 40h6.172l10.791-17.584-3.49-15.276L13.4 5.913 6.8 19.87l6.6 16.785z" style="fill:#fff" transform="translate(0 -.002)"/>
        <path data-name="패스 12401" d="M40 20.124A20 20 0 1 0 16.875 40V25.941H11.8v-5.817h5.078v-4.433c0-5.043 2.986-7.829 7.554-7.829a30.574 30.574 0 0 1 4.477.393v4.952h-2.525c-2.484 0-3.259 1.551-3.259 3.142v3.775h5.547l-.887 5.817h-4.66V40A20.09 20.09 0 0 0 40 20.124" style="fill:#4c4c4c" transform="translate(0 -.002)"/>
    </g>
</svg>
