<svg xmlns="http://www.w3.org/2000/svg" width="40" height="40" viewBox="0 0 40 40">
    <defs>
        <clipPath id="hz2lzoctna">
            <path data-name="사각형 12118" style="fill:#f5f5f5" d="M0 0h22v22H0z"/>
        </clipPath>
    </defs>
    <path data-name="패스 11953" d="M20 0A20 20 0 1 1 0 20 20 20 0 0 1 20 0z" style="fill:#373a3c"/>
    <g data-name="그룹 2882">
        <g data-name="그룹 2881" style="clip-path:url(#hz2lzoctna)" transform="translate(9 9)">
            <path data-name="패스 11932" d="M11 1.982c2.937 0 3.285.011 4.445.064a6.087 6.087 0 0 1 2.043.379 3.409 3.409 0 0 1 1.265.823 3.409 3.409 0 0 1 .823 1.265 6.087 6.087 0 0 1 .379 2.043c.053 1.16.064 1.508.064 4.445s-.011 3.285-.064 4.445a6.087 6.087 0 0 1-.379 2.043 3.643 3.643 0 0 1-2.088 2.088 6.087 6.087 0 0 1-2.043.379c-1.16.053-1.508.064-4.445.064s-3.285-.011-4.445-.064a6.087 6.087 0 0 1-2.043-.379 3.408 3.408 0 0 1-1.265-.823 3.408 3.408 0 0 1-.823-1.265 6.087 6.087 0 0 1-.379-2.043c-.053-1.16-.064-1.508-.064-4.445s.011-3.285.064-4.445a6.087 6.087 0 0 1 .379-2.043 3.408 3.408 0 0 1 .823-1.265 3.408 3.408 0 0 1 1.265-.823 6.087 6.087 0 0 1 2.043-.379c1.16-.053 1.508-.064 4.445-.064M11 0C8.013 0 7.638.013 6.465.066a8.073 8.073 0 0 0-2.67.511 5.392 5.392 0 0 0-1.949 1.269A5.393 5.393 0 0 0 .577 3.795a8.074 8.074 0 0 0-.511 2.67C.013 7.638 0 8.013 0 11s.013 3.362.066 4.535a8.074 8.074 0 0 0 .511 2.67 5.393 5.393 0 0 0 1.269 1.948 5.392 5.392 0 0 0 1.948 1.269 8.074 8.074 0 0 0 2.67.511C7.638 21.987 8.013 22 11 22s3.362-.013 4.535-.066a8.074 8.074 0 0 0 2.67-.511 5.625 5.625 0 0 0 3.217-3.217 8.074 8.074 0 0 0 .511-2.67C21.987 14.362 22 13.987 22 11s-.013-3.362-.066-4.535a8.074 8.074 0 0 0-.511-2.67 5.393 5.393 0 0 0-1.269-1.948 5.392 5.392 0 0 0-1.949-1.27 8.073 8.073 0 0 0-2.67-.511C14.362.013 13.987 0 11 0" style="fill:#f5f5f5"/>
            <path data-name="패스 11933" d="M127.271 121.621a5.649 5.649 0 1 0 5.649 5.649 5.649 5.649 0 0 0-5.649-5.649m0 9.315a3.667 3.667 0 1 1 3.667-3.667 3.667 3.667 0 0 1-3.667 3.667" transform="translate(-116.271 -116.27)" style="fill:#f5f5f5"/>
            <path data-name="패스 11934" d="M356.091 87.869a1.32 1.32 0 1 1-1.32-1.32 1.32 1.32 0 0 1 1.32 1.32" transform="translate(-337.899 -82.741)" style="fill:#f5f5f5"/>
        </g>
    </g>
</svg>
