<svg xmlns="http://www.w3.org/2000/svg" width="40" height="40" viewBox="0 0 40 40">
    <g transform="translate(11.519 16.111)">
        <circle data-name="타원 31" cx="20" cy="20" r="20" transform="translate(-11.519 -16.111)" style="fill:#373a3c"/>
        <g data-name="그룹 2885">
            <path data-name="패스 904" d="M21.018 0H3.941A3.949 3.949 0 0 0 0 3.957v9.387A3.947 3.947 0 0 0 3.941 17.3h5.883l2.008 3.267a.578.578 0 0 0 .064.094.672.672 0 0 0 1.165 0 .436.436 0 0 0 .069-.1l2.005-3.261h5.883a3.951 3.951 0 0 0 3.944-3.955V3.957A3.953 3.953 0 0 0 21.018 0" transform="translate(-4 -5.309)" style="fill:#f5f5f5"/>
            <path data-name="패스 905" d="M7.974 11.4a2.031 2.031 0 0 0-1.3.6V9.581H5.146v6.366h1.543v-.5a1.466 1.466 0 0 0 1.285.659 2.255 2.255 0 0 0 2.152-2.381s-.08-2.325-2.152-2.325m-.338 3.36a.981.981 0 1 1 .981-.98.98.98 0 0 1-.981.98" transform="translate(-6.43 -9.833)" style="fill:#373a3c"/>
            <path data-name="패스 906" d="M15.513 9.3v1.48s.7-.032.7 1.269v3.767h1.474V11.7s.064-2.4-2.169-2.4" transform="translate(-11.324 -9.702)" style="fill:#373a3c"/>
            <path data-name="패스 907" d="M24.186 13.071s-2.526 0-2.526 2.356a2.284 2.284 0 0 0 2.526 2.328s2.583 0 2.583-2.328a2.319 2.319 0 0 0-2.583-2.356m0 3.337a.981.981 0 1 1 .981-.98.98.98 0 0 1-.981.98" transform="translate(-14.226 -11.48)" style="fill:#373a3c"/>
            <path data-name="패스 908" d="M36.246 13.219v.434a1.67 1.67 0 0 0-1.283-.583 2.1 2.1 0 0 0-2.161 2.34s-.024 2.268 2.1 2.268a1.757 1.757 0 0 0 1.343-.583v.356s.109 1.117-.973 1.117H34.9v1.353h.6a2.218 2.218 0 0 0 2.233-2.386v-4.316zm-.913 3.188a.981.981 0 1 1 .981-.98.981.981 0 0 1-.981.98" transform="translate(-19.487 -11.48)" style="fill:#373a3c"/>
        </g>
    </g>
</svg>
