<svg xmlns="http://www.w3.org/2000/svg" width="14" height="20" viewBox="0 0 14 20">
    <path data-name="패스 1784" d="M226.184 102.474a7.114 7.114 0 1 1 7-7.113 7.065 7.065 0 0 1-7 7.113zm0-12.825a5.713 5.713 0 1 0 5.622 5.712 5.674 5.674 0 0 0-5.622-5.712z" transform="translate(-219.184 -82.474)" style="fill:#fff"/>
    <path data-name="패스 1785" d="M229.01 86.745a.7.7 0 0 1-.689-.7 2.137 2.137 0 1 0-4.273 0 .69.69 0 1 1-1.379 0 3.515 3.515 0 1 1 7.03 0 .694.694 0 0 1-.689.7z" transform="translate(-219.184 -82.474)" style="fill:#fff"/>
    <path data-name="패스 1786" d="M226.184 97.473a.7.7 0 0 1-.689-.7v-2.824a.689.689 0 1 1 1.378 0v2.824a.7.7 0 0 1-.689.7z" transform="translate(-219.184 -82.474)" style="fill:#fff"/>
</svg>
